<?xml version="1.0" encoding="utf-8"?>
<!-- Generator: Adobe Illustrator 17.1.0, SVG Export Plug-In . SVG Version: 6.00 Build 0)  -->
<!DOCTYPE svg PUBLIC "-//W3C//DTD SVG 1.1//EN" "http://www.w3.org/Graphics/SVG/1.1/DTD/svg11.dtd">
<svg version="1.1" id="Layer_1" xmlns="http://www.w3.org/2000/svg" xmlns:xlink="http://www.w3.org/1999/xlink" x="0px" y="0px"
	 width="52.3px" height="52.4px" viewBox="0 0 52.3 52.4" enable-background="new 0 0 52.3 52.4" xml:space="preserve">
<g>
	<path fill="#CD3D27" d="M49.4,33.3c-4.3,3-8.8,5.6-13.4,8.2c-6.1,3.4-12.2,6.7-18.8,8.9c-3.3,1.1-6.6,2.1-10.1,2
		c-4.3-0.1-6.9-2.6-7.1-6.9c-0.2-3.9,0.9-7.6,2.1-11.2c4.1-11.5,10.4-22,16.9-32.3c0.2-0.3,0.4-0.6,0.5-0.6c0,0.1-0.2,0.5-0.3,1
		c-2,5.4-4,10.7-5.2,16.4c-0.6,3.2-1.1,6.4-0.7,9.7c0.9,6.9,4.8,10.5,11.9,10.7c6.4,0.1,12.5-1.7,18.4-3.9c1.9-0.7,3.7-1.5,5.5-2.2
		c0.4-0.1,1.1-0.4,1.1-0.4S49.8,33,49.4,33.3z"/>
	<path fill="#3775BB" d="M26.2,1.3c-0.5,3.4-1.1,6.8-1.2,10.3c-0.2,7.1,2.3,13.1,9.1,15.1c3,0.9,6.1,0.9,9.2,0.6
		c2.4-0.3,4.8-0.9,7.2-1.3c-1,1.2-2.4,1.7-3.7,2.4c-5.9,3.2-12,6.2-18.7,7.4c-8,1.4-11.9-2.5-10.7-10.6c1.1-7.2,3.8-13.8,7-20.3
		C24.9,3.7,25.5,2.5,26.2,1.3z"/>
	<path fill="#55B45B" d="M52.3,19c-4.2,2-8.1,3.3-12.1,4.1c-1.4,0.3-2.7,0.3-4.1,0.2c-3.9-0.3-6.4-3.1-6.6-7.2
		C29.2,10.8,30.9,6,32.7,1.2c0.1-0.3,0.2-0.6,0.4-1.2c-0.1,0.8-0.1,1.1-0.1,1.7c-0.3,4-0.3,7.9,2.2,11.3c3.2,4.4,7.8,5.6,12.9,5.9
		C49.3,19,50.5,19,52.3,19z"/>
	<path fill="#F08931" d="M39.5,0.6c0.3,8,5.3,11.2,12.5,12.1c-3.5,1.4-6.9,2.8-10.7,2.2c-2.8-0.4-4.2-2.3-4.3-5.1
		C37,6.6,38.1,3.6,39.5,0.6z"/>
</g>
</svg>
