<svg version="1.1" xmlns="http://www.w3.org/2000/svg" xmlns:xlink="http://www.w3.org/1999/xlink" x="0px" y="0px"
	viewBox="200 025 1000 1400" xml:space="preserve" id="map-frame">
	<g id="background">
		<g><!-- this ia all the counties -->
			<path id="Adams_5_" opacity="0.2" fill="#818080" stroke="#231F20" stroke-width="2.4971" stroke-miterlimit="10"
				d="M943.9,340
				v0.7l0.1,2.3l0.7,35.9l0,4.6l0,1l0.2,25.6l-11.4,0.4l-17.4,0.5l-11.8,0.3l-1.7-70l11.6-0.3l17.9-0.5L943.9,340L943.9,340z"/>
			<path id="Allen_5_" opacity="0.2" fill="#818080" stroke="#231F20" stroke-width="2.4971" stroke-miterlimit="10"
				d="M942.4,270.2
				l0.1,3.3l0,0.2l1,48l0.1,4.9l0.3,13.4l-11.7,0.6l-17.9,0.5l-11.6,0.3l-5.3,0.1l-17.2,0.3l-17.2,0.3l-0.2-17.3v-0.5l-0.7-16.8
				l-0.4-17.6l4.4-0.2l0.1-17.3l17.5-0.1l17.5-0.5l17.3-0.6l17.4-0.7L942.4,270.2L942.4,270.2z"/>
			<path id="Bartholomew_5_" opacity="0.2" fill="#818080" stroke="#231F20" stroke-width="2.4971"
				stroke-miterlimit="10" d="
				M811.7,656.7l0,2.4v2.3l-0.1,1.5l0,11.5l-0.1,2.9l0,9.4l0,5.3l0.1,8.8l-17.3,0.4l0.1,8.7l0.1,3.4l-1-0.5l-1.9,0.2l-1,0.3l-0.7,0.9
				l-1,0.3h-1.1l-0.2,0.4l-0.7,0.4l-0.1,0.7l-0.7,0.2l-0.7,0.7l-0.7,0.5l-0.1,0.3l0.7,0.8l-0.3,0.5l-34.3,1.1l-0.1-2.8l-0.1-6.2
				l-0.4-27.9l-0.1-4.4l-0.3-20.6l9.4-0.2l5.4-0.1h1.4l4.5-0.1l5.9-0.1l17.8-0.8L811.7,656.7L811.7,656.7z"/>
			<path id="Benton_5_" opacity="0.2" fill="#818080" stroke="#231F20" stroke-width="2.4971" stroke-miterlimit="10"
				d="
				M594.3,378.1l0.2,35l0.1,17.6l-8.5-0.2l-17.5-0.5l-17.3-0.2l-17.3-0.2l-5.7-0.2l0.1-2.4l0.3-11.9l0.3-29l0.1-8.5l5.5,0l16.7,0.2
				l17.6,0.1l17,0.3L594.3,378.1L594.3,378.1z"/>
			<path id="Blackford_5_" opacity="0.2" fill="#818080" stroke="#231F20" stroke-width="2.4971"
				stroke-miterlimit="10" d="
				M884.2,411.9l0.2,17.6l-0.8,0l0.2,20.4l-0.3-0.1l-1.8,0.1l-34.4,0.3l0-2.8l-0.3-17.4l-0.1-17.5l17.2-0.3l17.1-0.3L884.2,411.9
				L884.2,411.9z"/>
			<path id="Boone_5_" opacity="0.2" fill="#818080" stroke="#231F20" stroke-width="2.4971" stroke-miterlimit="10"
				d="M724.9,490.5
				l0.1,10.1l0,17.7l0.4,17.5l0.1,5.8l-5.7,0.2l-3.3,0.1l-4.6,0.2l-56.6,0l0-6l-0.1-17.6l-0.1-17.6l0-10.1L724.9,490.5L724.9,490.5z"
				/>
			<path id="Brown_5_" opacity="0.2" fill="#818080" stroke="#231F20" stroke-width="2.4971" stroke-miterlimit="10"
				d="M749.4,658
				l0.3,20.6l0.1,4.4l0.4,27.9l0.1,6.2l-1.7,0.1l-24.2,0.6l-4.5-0.2l-2.1,0l-4.7-0.2l-8.1,0.1v-4.9l0.1-2.4v-5.4l0-2.6l-0.4-25.5
				l-1.2-0.1l-0.1-3.1l-0.1-14.4l3.9-0.1l16.8-0.3l17.3-0.5l5.7-0.2H749.4L749.4,658z"/>
			<path id="Carroll_5_" opacity="0.2" fill="#818080" stroke="#231F20" stroke-width="2.4971" stroke-miterlimit="10"
				d="
				M673.1,379.2l1.4,0l7.5,0.2v3.6l-0.2,4.8l18.2,0.1h4.8l-0.2,26.3l-0.2,26l-49-0.2l0-8.6l0-17.6l-11.6,0L644,393h2.4l0.4-1.5
				l1.2-1.1l-0.1-0.4l-1.7,0.1l-0.3-0.5l0.9-0.9l0.5-0.5l-0.8-1.3l-0.5-1.2l0.3-1.6l0.4-0.8l0.7-1.2l-1.2-1.1l0.8-1.7v-0.8l8.7,0.1
				L673.1,379.2L673.1,379.2z"/>
			<path id="Cass_5_" opacity="0.2" fill="#818080" stroke="#231F20" stroke-width="2.4971" stroke-miterlimit="10"
				d="M690.7,344.4
				l17,0l9.4,0l3.7,0.1l4.4,0.1l10.8-0.3l0,33.5l-0.2,5.4l0.3,7.2l0.2,7.3l0.4,16.1l-11.6,0.2l-17.8,0.2h-2.7l0.2-26.3H700l-18.2-0.1
				l0.2-4.8v-3.6l-7.5-0.2l-1.4,0l0.3-17.7l0.1-17.6L690.7,344.4L690.7,344.4z"/>
			<path id="Clark_5_" opacity="0.2" fill="#818080" stroke="#231F20" stroke-width="2.4971" stroke-miterlimit="10"
				d="M830.7,805.7
				l11.5-0.3l0.1,2.9l2.8,0l0.1,1.2l8,0l0.3,0.5l0.6,1.2l0.8,1.7l0.4,1.4l0.1,1.6l0,0.5l-0.3,2l-1,2l-1.5,1.5l-1,0.7l-0.4,0.3
				l-0.3,0.2l-1.1,0.5l-2.5,1.2L847,825l-0.2,0.2l-0.8,1.3l-0.3,0.6l-2,4.5l-0.1,0.1l-0.2,0.3l-1.4,1.5l-0.7,0.6l-0.1,0.1l-4.3,1.5
				l-0.2,0l-5.6,0.6l-0.9,0.2l-1,0.3l-0.2,0.1l-2.5,1.4l-1.8,2l-1.5,2.4l-2.1,5.8l-0.6,2.7l0,0.2l0,1l-0.2,4.1l-1.8,4.7l-0.3,0.6
				l-0.3,0.5l-3.1,4.4l-2.8,2.6l-0.1,0.1l-0.9,0.5l-1.4,0.8l-3,1.8l-0.8,0.4l-0.3,0.2l-1.3,0.6l-0.3,0.1h-0.3l-1.8-0.5l-1.2-1.3
				l-0.6-1l-0.9-0.7l-0.7-0.3l-0.8-0.2l-0.9,0.1l-0.6,0.2l0.3-0.9l-0.2-1.7l-0.8-1.3l1.4-0.5l-0.8-0.5l-0.1-0.9l1.7-1.1l-1.8-0.8
				l-0.4-1.6l0.5-0.2l1.5,0.6l0.3-0.1v-0.7l-0.4-0.2l0.2-0.5l0.4-0.2l0.2-0.6h0.4l1.3-0.2l0.2-0.6l1.2-0.7l-3.2-4.7l-4.3-6.1
				l-29.5,0.4v-3.1l0.1-14.1l5.9-0.1v-2.7l11.2-0.2v-3.1l2.9,0.1l-0.1-5.8l3.1-0.1l-0.1-3.2h4.2l-0.1-2.5h1.5v-1.4h1.5v-1.6l1.5,0.1
				l-0.1-2.9L830.7,805.7L830.7,805.7z"/>
			<path id="Clay_5_" opacity="0.2" fill="#818080" stroke="#231F20" stroke-width="2.4971" stroke-miterlimit="10"
				d="M605.7,605.6
				l-0.2,17.4l-0.2,8.8l11.2,0.1l-0.5,26.3l-11.1-0.1l-6.1-0.2l-0.6,34.7l-11.2-0.1l-17.4-0.7l0.2-17.6l0.3-17.5l0.3-17.1l0.2-17.5
				l5.6,0.1l0.3-17.6l11.8,0.5L605.7,605.6L605.7,605.6z"/>
			<path id="Clinton_5_" opacity="0.2" fill="#818080" stroke="#231F20" stroke-width="2.4971" stroke-miterlimit="10"
				  d="
				M704.5,440.2l10.1,0l0.1,8.7l4.3,0l0.1,2.9l5.8,0l0.1,14.4l-0.2,17.3l0.2,6.9l-69.8,0.3l0.1-7.2l0.2-17.5l0.1-17.4l-0.1-8.8
				L704.5,440.2L704.5,440.2z"/>
			<path id="Crawford_5_" opacity="0.2" fill="#818080" stroke="#231F20" stroke-width="2.4971"
				  stroke-miterlimit="10" d="
				M723.1,843l-0.7,1.5l-0.8,0.6l0.3,0.5l0.7-0.1l0.9,0.7l-0.2,1l0.4,0.8l-0.1,0.6l0.4,0.8l0.6,0.5l-0.1,0.4l-0.9,0.6l-0.5-0.3
				l-1,0.6l0.4,0.7l0.2,2.2l1.5,0.5l0.1,0.3v0.5l-0.7,0.9l-0.7,0.3l-0.9-0.5l-0.2-0.8l-1-0.1l-0.5,1.1l-0.4,1.3l0.3,0.5l0.5,1.2
				l-0.5,0.1l-0.4,0.1v0.4l0.5,1.8l-0.1,0.9l-0.1,1l-0.7-0.3l-0.4-0.4l-0.2-0.3l-1,1.6l2,1.5l0.9,0.3l0.5-0.2l1.4,0.5v0.3l-0.5,0.2
				h-0.4l-0.1,1.9l0.7-0.5l0.9,0.2l0.3,0.3l-0.1,0.7l-0.4,0.2l-0.4,1.4l-0.3,0.1l-1-0.7l-0.6,1.6h-0.8l-0.1,4.3l-0.1,0.8l-0.2,5.2
				l-0.4,0.7l-0.7,0.6l-1.4-0.8l-0.7,0.6l-0.1,0.5l1.5,1.1l-0.2,0.6l-0.8,0.3l0.8,1.6l-0.6,0.1L716,887l-1-0.1l-0.4,0.5l-0.5,2.4
				l-0.8-0.1l-0.3,0.3l1.4,1.3l-0.5,0.7h-0.7l-1.4-0.9l-0.8,0.6l-0.3-0.3l-1-1.1l-1.6-1.7l-0.1-0.1l-1.4-0.5l-1.3,0.5l-0.1,0.1
				l-0.8,1.1l-0.1,0.2l-0.3,1l0.2,1.9l0.4,0.8l1.2,1.1l0.1,0l1.8,0.4l0.3,0.1l2.3,0.5l1.5,0.8l0.3,0.2l0.6,1.6l-0.5,1.6l-0.7,0.9
				l-1.8,0.9l-2.7,0l-2.1,0l-1.1,0.3l-1.5,1.2l-0.1,0.1l-0.1,0.2l-0.6,1.5l-0.4,0.7l-0.4,0.6l-0.4,0.3h-0.1l-1-0.2l-0.8-0.6l-1-0.9
				l-0.1-0.1l-1.9-1.7l-1.1-0.6l-2.1-0.1l-0.3,0l-0.3,0.3l-1.3,1.4l-0.2,0.6l0.1-3.2l0.2-15.7l-17.5-0.1l0.1-11.3l-15,0.1h-2.1l0-3
				v-6.3l-0.1-5.4l-0.1-8.3v-0.9l0-3.1h4.7l1.2,0l7.4,0l34.1,0l3.1,0l8.6,0.2l-0.4-5.1L723.1,843L723.1,843z"/>
			<path id="Daviess_5_" opacity="0.2" fill="#818080" stroke="#231F20" stroke-width="2.4971" stroke-miterlimit="10"
				  d="M621,745.5
				l0.1,11.7l0.1,5.8l-2.9,0.1l-0.6,62.9h-1.8l-0.7,0.7l-0.1,1.5l-1.5,0.7l-1-0.4v-2.3l-1.3-0.3l-0.6,0.2l-1.6,0.3l-1.4-1l-1.1-1.3
				l-1.3,1h-0.7l-0.9-0.7l-1.1,0.9l-0.8,0.1l-1.6-1.1l-1.8,0.4l-1.3,1.6l-1.1,0.4l-0.7-0.8l-0.6-1.6l-0.5-0.4h-0.7l-0.9,0.5l-0.7-0.2
				v-0.5l0.9-1l-1.8-0.4l-0.5-1.4l-0.7-0.9l-1.2-0.8l-1.1,0.2l-0.7,0.5v1.6l-0.7,0.3l-0.4-0.1l-0.7-1l-0.7-0.4l-0.5,0.5l-0.2,0.6
				l0.7,1.2l-0.2,0.4l-1.5,0.5h-0.9l-0.7-0.9l0.4-1.4l-1.2-1l-1.4,0.1l-0.4-1.9l-1.5-1.3l-3.2-1l-1.1,0.5l-0.7,1.4l-1,0.8l-1.1-0.4
				l-1.2-0.9l-0.7-0.2l-0.4,0.2l0.7-1.6l-1.4-0.7l-0.2-0.5l1.4-0.1l0.4-0.5l-0.7-0.8l-1.1-0.6l0.4-0.5h0.7l0.7-0.8l0.1-1l-0.3-0.3
				l-1.1,0l-0.5-1l0.1-0.6l0.7-0.9l-0.7-0.7l0.1-0.3l1.1-0.2l0.4-0.7l-2-1l-0.5-0.7l0.8-0.5l0.8,1l0.7,0.1v-1.5l-1.4-1.6l-0.6-1.3
				l0.7-0.8l0.6,0.5l0.7,0.2l0.7-0.6l-1-0.4l-0.2-1.4l-1.2-0.4l-0.1-1.1l0.6-0.3l0.9,1h0.7l-0.4-1l0.4-1.3l-0.6-0.3l-2,1.3l-0.7-1.3
				l0.5-0.9l1.5-1.6l0.1-0.9l-0.6-0.3l-0.4,0.5l-1.3,2.1l-0.2-0.5l-0.1-0.9l-1.8-1.5V790l0.6-0.4l1.3-0.2V789l-0.4-0.1l-1.2-0.1
				l-1.2-1l2-1.4l-0.5-1.5l0.9-0.6l0.2-0.9l1-0.6v-0.7l-0.7-0.7l-0.4-1l0.4-0.7l0.4,0.1v0.5l0.2,0.4l0.8,0.7l0.7-0.1l0.1-0.8L566,780
				l0.1-0.6l1.2-1.4l0.7,0.5l0.7-0.3l-0.3-0.5l-0.7-0.9l-1.3-1.4l0.2-0.5l0.6-0.1l0.6,0.4l0.8-2.2l-0.8-0.3l-0.8,0.8l-0.7,0l-0.5-0.8
				l0.3-1.9l0.7-0.3l1.3,0.2l0.6-0.5l0.1-1.6l-0.5-1.5l0.3-1.1l-0.8-1l1.2-2.5l0.8,0.6l-0.7,0.4v0.7l0.5,0.1l0.6-0.6l0.8,0.3
				l-0.4,1.3l0.2,0.4h0.5l0.4-1.2l0.6-0.4l0.6,0.1l-0.6-2.1l0.8-0.3l0.5,0.5l-0.1,0.3l-0.4,2.3l0.5,0.2l0.4-0.9l0.8-0.7l-0.4-1.7
				l0.4-0.5l0.8,0.4l0.3,1.6l0.6,0.4l0.5-1.2l-0.1-0.6l-1.1-0.5l-0.2-0.4l0.2-0.4l0.4-0.4l0.5,0.2l0.6,1.1l0.3-0.5v-1.3h0.6l1,1.1
				l0.7-0.3V760l-0.5-0.5l0.3-0.4l-0.3-0.9l-1.6-0.4l-0.2-0.5l0.6-0.3l0.4,0.5l0.9,0.1l0.8-0.5l0.8,0.6l0.3-0.2l1.1,0.4l0.7,1
				l0.8-0.2l0.7-0.9l-0.3-0.8l0.5-0.5l-0.7-0.6l0.5-1.3l-1.1-1.3l0.2-0.4l0.4-0.1l1.8,1.7l0.9,0.1v-0.8l-0.7,0.1l-0.4-0.5l0.1-0.6
				l-0.5-0.7l0.2-0.6l0.4-0.3l0.4,0.2l0.4,0.8l0.6,0.3l0.7-0.5v-0.5l-0.6-0.7l-0.5-1.5l1.1-0.8l0.6-0.4l0.7-1l1-1.1l0.6,0.1l0.5,0.4
				l0.7-0.2l0.1-0.7l-0.5-0.6l12.3,0.4L621,745.5L621,745.5z"/>
			<path id="DeKalb_5_" opacity="0.2" fill="#818080" stroke="#231F20" stroke-width="2.4971" stroke-miterlimit="10"
				  d="
				M941.3,218.1l0,1l0.4,19.8l0.3,16.8l0.2,6l0.2,8.5l-6.6,0.2l-17.4,0.7l-17.3,0.6l-17.5,0.5l-0.3-17.6l-0.2-17.6l-0.3-17.7l34-0.7
				l17.1-0.5L941.3,218.1L941.3,218.1z"/>
			<path id="Dearborn_5_" opacity="0.2" fill="#818080" stroke="#231F20" stroke-width="2.4971"
				  stroke-miterlimit="10" d="
				M946.6,664.1l0.1,15.9l0.1,7.1l0.4,16.8l-0.1,0l-0.1,0.1l-2.1,1.6l-3.5,3.6l-1.6,1.1l-3.2,2.1l-0.3,0.3l-0.2,0.3l-0.1,0.3l-0.1,1
				v0.3l0.8,1.6l0.9,1.1l1,1.3l0.1,0.1l-3.6,4.1l-1.9-1.1h-0.4l-0.9,0.8l-0.5,0.3l-0.5-0.4l-0.7,1.3l-1.1,0.8l-0.3-0.6l-0.6-0.2
				l-0.7,0.5l0.4,1.4l-0.4,0.4l-0.8,0.4l-0.3,0.4l-0.9,0.1l-0.7-0.6l-0.7,1l-2.1-0.7l-0.4,0.3l-0.9,0.1l-0.4-0.3l-0.2-0.3l-0.6,0.3
				l-0.6,1.8l0.2,0.8l-0.8,1l-1.1-0.5l-1.1-0.3l-0.7,1.6l-1.4-0.4h-1l-1,1.4l-0.7,0.3v0.9l-0.6,0.7l-0.7,0.4l0.2,1.3l-0.2,0.6
				L909,736l-0.7,0.4l-0.4,0.1l-0.5-0.1l-0.8-0.8l-0.4,0.3l-0.7,1.7l-0.5,0.3l-0.6,1.2l-0.5-0.3l-0.7-0.7l-0.8,0.3l-0.7,0.7l-0.7,0
				l-0.4-0.4l-0.3-1.3l1.2-1.7l-0.1-0.6l-1.1,0.1l-1.2,1.6l-0.9,0l0.4-2.7l0.3-1.8l1.2-6l2.3-18.1l1-8.5l1.1-9.3l1.1-8.2l1.3-9.6
				l1.1-8.2h4.2l17.3,0L946.6,664.1L946.6,664.1z"/>
			<path id="Decatur_5_" opacity="0.2" fill="#818080" stroke="#231F20" stroke-width="2.4971" stroke-miterlimit="10"
				  d="
				M871.8,635.5l0.6,37.2l-22.3,14.8l-19.6,12.8l-19,0.5l-0.1-8.8l0-5.3l0-9.4l0.1-2.9l0-11.5l0.1-1.5V659l0-2.4l8.5-0.3l-0.1-19.8
				l-0.1-0.5L871.8,635.5L871.8,635.5z"/>
			<path id="Delaware_5_" opacity="0.2" fill="#818080" stroke="#231F20" stroke-width="2.4971"
				  stroke-miterlimit="10" d="
				M847.2,450.1l34.4-0.3l0.5,14.4l0.4,17.6l0.2,17l0.3,11.7l-55.5,0.5l-0.8-60.6L847.2,450.1L847.2,450.1z"/>
			<path id="Dubois_5_" opacity="0.2" fill="#818080" stroke="#231F20" stroke-width="2.4971" stroke-miterlimit="10"
				  d="M655.7,822
				l0,17.4l0.1,3.8v4.6l0,3.1v0.9l0.1,8.3l0.1,5.4v6.3l0,3v3l-18-0.2l0,8.5l-17.6-0.1l-17.7,0l-8.9-0.1l0-5.2l0.6-56.6l0.5,0.4
				l0.6,1.6l0.7,0.8l1.1-0.4l1.3-1.6l1.8-0.4l1.6,1.1l0.8-0.1l1.1-0.9l0.9,0.7h0.7l1.3-1l1.1,1.3l1.4,1l1.6-0.3l0.6-0.2l1.3,0.3v2.3
				l1,0.4l1.5-0.7l0.1-1.5l0.7-0.7h1.8l0.2,1l1.3,0.8l1-0.8l1.2-0.3l1.4,1.2l1.8,0.2l0.5-0.3l0.2-1.1l0.8-0.8l2.4-0.7l1.8-1.1
				l1.4-1.6l-0.3-0.6h2l2.2,0h2.6L655.7,822L655.7,822z"/>
			<path id="Elkhart_5_" opacity="0.2" fill="#818080" stroke="#231F20" stroke-width="2.4971" stroke-miterlimit="10"
				  d="
				M751.9,173.4l19.6-0.1l21.7,0.1h4.2l14.8,0l0.3,12.4l0.3,17.4l0.4,17.5l0.3,10.4l-0.1,7l-17.4,0.3l-17.7,0.1l-17.1,0.1l-8.8,0.2
				l-0.1-5.5v-2.9l0-2.9l-0.1-1.3L751.9,173.4L751.9,173.4z"/>
			<path id="Fayette_5_" opacity="0.2" fill="#818080" stroke="#231F20" stroke-width="2.4971" stroke-miterlimit="10"
				  d="M882.8,568
				h5.8l0,14.8l23.3-0.2l0.2,37.5l-14.6,0.3l-17.3,0.3l-8.8,0.2l-1-52.6l9.1-0.4L882.8,568L882.8,568z"/>
			<path id="Floyd_5_" opacity="0.2" fill="#818080" stroke="#231F20" stroke-width="2.4971" stroke-miterlimit="10"
				  d="M764,843.7
				v3.1l29.5-0.4l4.3,6.1l3.2,4.7l-1.2,0.7l-0.2,0.6l-1.3,0.2h-0.4l-0.2,0.6l-0.4,0.2l-0.2,0.5l0.4,0.2v0.7l-0.3,0.1l-1.5-0.6
				l-0.5,0.2l0.4,1.6l1.8,0.8l-1.7,1.1l0.1,0.9l0.8,0.5l-1.4,0.5l0.8,1.3l0.2,1.7l-0.3,0.9L796,870l-1,0.3l-1,0.2l-0.9,0.3l-0.8,0.3
				l-0.8,0.4l-1,1.2l-0.7,1.6l-0.5,2.8l-0.5,2.7l-1,2.4l-1,1.3l-1.6,1.4l-3.2,3l-0.1,0.1l-1.3,2l-1.1,1.7l-0.1,0.2v-1.4h-8.3l-0.7-15
				h-3l0-3l-3.3,0.1L764,867l-3,0l-0.1-5.6h-2.9l0-17.4L764,843.7L764,843.7z"/>
			<path id="Fountain_5_" opacity="0.2" fill="#818080" stroke="#231F20" stroke-width="2.4971"
				  stroke-miterlimit="10" d="
				M594.6,452.7l-0.3,29.9l-0.3,52.8l-8.5-0.1l-17.8-0.2l-17.3-0.1l-7.3-0.1l-0.2-0.5l-1.3,0.4l-1.1-0.7l-0.4-0.7l1.6-1.9l0.5-1.9
				v-1.1l-0.8-1.4l-0.3-6.3l0.7-1.8l1.1-1.3l-1.1-1.6l1.7-1.3l0.7-1.6l0-1.5l0.7-2.8l-0.2-2.6l1-2.4l0.1-3.7l0.1-0.6l0.3-1l-0.2-1.1
				l-0.1-0.7l-3.7-2.2l-1.2-1.9l0.4-1.2l1.8-2.3l0.9-2.2l2.3-0.6l1.8-1.4l5.3-2.1l0.8-0.5l0.8-0.1l0.5-1l1.1-0.4l0.7-0.7l0.7-1.6
				l1.6-1l0.7-1.6l1.2-0.8l1.8-0.6l2.1-4.4l1.1-1.2l1.5-0.7l1.6-1.4l0.8-0.7l0.2-1.4l0.5-0.7l2.1-0.3l3.6-2.1l2.5-0.6l1.7-0.7
				l1.5-1.2l1,0.1l0.9-0.4l0.8,0.3l3.3-1.1l1.1-1.1l2.8-1.7l0.3-1.1l1.1-1.3H594.6L594.6,452.7z"/>
			<path id="Franklin_5_" opacity="0.2" fill="#818080" stroke="#231F20" stroke-width="2.4971"
				  stroke-miterlimit="10" d="
				M912.2,620.2l2.1-0.1l-0.1,0.6l2,0h2.6l27.8,0l0.1,10.5l0.1,11.2l-0.1,9.2l0,2.9l0.1,9.5l-16.9,0.1l-17.3,0h-4.2l-23.9,0.3
				l-0.3,0.2l-11.8,8l-0.6-37.2l-0.3-14.6l8.8-0.2l17.3-0.3L912.2,620.2L912.2,620.2z"/>
			<path id="Fulton_5_" opacity="0.2" fill="#818080" stroke="#231F20" stroke-width="2.4971" stroke-miterlimit="10"
				  d="
				M749.8,291.4l0.3,17.7l8.8-0.3l0.2,9l10.8-0.2l-0.1,8.6l-10.9,0.3l-16.8,0.1l-5.8,0.2l-0.2,7.3v1.2l0,8.9l-10.8,0.3l-4.4-0.1
				l-3.7-0.1l-9.4,0l-17,0l0.1-17.7l-0.1-17.4l0.1-17.5l7.1-0.2l9.7,0h1.6l15.9-0.1h3.1l14-0.1l2.3-0.1L749.8,291.4L749.8,291.4z"/>
			<path id="Gibson_5_" opacity="0.2" fill="#818080" stroke="#231F20" stroke-width="2.4971" stroke-miterlimit="10"
				  d="
				M532.6,819.8l0,3l-0.1,7.3l0,2.8l3.1,0l0,3.2v1.5l-0.1,1.5l5.9,0.1l-0.2,11.4l0.3-0.2l0.9-0.3l0.8,0.2l1.2,0.1l1.1-0.3l1.2,0.4
				l1.3,0.1l1-0.4l2-0.4l1.7,0.4l0.7,0.5l1.9,0.4l0.4,0.1l-0.4,26.3l0,2.9l-0.1,5.3l-6.1,0l-17.5,0l-0.3,7.6l-35-1.1l0.1-6.7
				l-17.5-0.1v-2.6l0.1-2.9l-28.8-1.3v-0.3l0.2-0.9l0.1-0.7l-0.1-0.8l-0.1-0.4l-0.1-0.3l-0.3-0.7l-0.2-0.5l-0.3-0.7l0-0.1l0.1-0.2
				l0.2-0.2l0.2-0.2l0.3,0.1l0.4,0.2l0.1,0.2l0.4,0.7l0.8,1.4l0.4,0.6l0.2,0.2l0.2,0.2l0.4,0.4h0.4l0.1,0l0.1-0.1l0.4-0.5l0.1-0.2
				l0.1-0.3v-0.4l0-0.5l0.1-0.3l0.2-0.5l0.3-0.1l0.4-0.2l0.4-0.3l0.1-0.1l0.5-0.6l0-0.4l-0.1-0.5l-0.3-0.4l-0.5-0.5l-0.1-0.1
				l-0.1-0.2l-0.1-0.2l-0.1-0.3l0.2-0.5l0.4-0.4l0.5-0.2l0.3-0.3l0.1-0.2l0.2-0.3l0.2-0.6l0.1-0.3l0.3-0.7l0.2-0.3l0.3-0.4l0.5-0.4
				l0.7-0.3l0.5-0.3l0.3,0h0.4l0.7,0.1l0.5,0.2l0.4,0.3l0.2,0.1l0.2,0.3l0.1,0.5l-0.2,0.5l-0.3,0.5l-0.3,0.5l-0.1,0.1l0,0.1l-0.3,0.6
				l-0.4,0.6l-0.1,0.6l0.1,0.3l0.1,0.3l0.3,0.4l0.2,0.2l0.1,0.1l0.5-0.1l0.2-0.1l0.4-0.2l0.4-0.7l0.4-0.8l0.2-0.4l0.2-0.2l0.5-0.5
				l0.3-0.3l0.2-0.1l0.3-0.3l0.4-0.5l0.4-0.9l0.5-0.9l0.3-0.7l0.4-0.9l0.3-0.5l0.4-0.5l0.6-0.2l0.4,0.1l0.4,0.3l0.2,0.3l0.1,0.2
				l0.2,0.9l0,0.5l0,0.3l-0.1,0.5l-0.1,0.4l-0.2,1l0.3,0.8l0.1,0.3l0.1,0.2l0.5,0.7l0.4,0.5l0.2,0.2l0.1,0.1l0.5,0.1l0.4,0l0.5-0.2
				l0.6-0.5l0.7-1.3l0.5-0.7l0.4-0.8l0.2-0.8l0-0.2l0.1-0.5l0-0.4l0-0.3l0-1l-0.1-0.7V862l0.1-1.2l0.3-1.5l0.2-0.7l0.1-0.7l0.3-0.6
				l0.3-0.5l0.1-0.3l0.2-0.3l0.3-0.5l0.1-0.1l0.4-0.5l0.3-0.5l0.4-0.5l0.5-0.6l0.4-0.4l0.7-0.5l1.7-0.5l1.1-0.4l0.7-0.2l0.3-0.2
				l0.2-0.1l0.6-0.4l0.4-0.5l0.2-0.3l0.2-0.3l0.3-0.6l0.1-0.1l0.3-0.4l0.6-0.8l0.6-0.8l0.6-0.8l0.9-1.2l0.7-1l0.3-0.5l0.1-0.3l0-0.1
				l0.1-0.3l1.4-0.6l2,0.3l2.1-0.5l4.4-2.6l1.3,0.6l1.7-0.7l-0.1-1.1l-1.4-0.7l-0.3-1.1l0.2-0.4l1.1,0.1l1.1-1.8l0.4-0.2l0.7,0.2
				l0.9,0.5l0.7-0.2l0.6,0.7l-0.2,1.3l0.4,0.5l0.7,0.1l0.6-0.7l0.1-0.4l0.9-0.3l1.6,0.7l2-0.8l1.4-2.3l0.2-1.6l1.5-2.7l-0.1-0.5
				l-0.6-0.5l-0.4-1l0.6-1.2h0.7l0.3,1.1l0.7,0.6l2.4,0.3l2.7-0.4l-0.1-1.6l-0.7-0.6l-0.2-1.3l-0.5-0.6l0.5-1l1-0.4h0.7l1,0.8
				l0.1,0.7l-0.7,1.4l0.3,0.9l0.5,0.1l1.5-1.1l0.8,0.1l2,1.7l0.8-0.1l0.5-0.3l0.3-1.7l2.4-1.1l0.8-1v-0.7l0.3-0.5l0.4-0.4l0.2-1.6
				L532.6,819.8L532.6,819.8z"/>
			<path id="Grant_5_" opacity="0.2" fill="#818080" stroke="#231F20" stroke-width="2.4971" stroke-miterlimit="10"
				  d="M846.3,395
				l0.5,17.5l0.1,17.5l0.3,17.4l0,2.8l-20.4,0.1l-43.5,0.5l-0.1-5.7l-0.4-32l-0.1-17.3l11.8-0.1l17.2-0.3l5.5-0.1l11.8-0.2L846.3,395
				L846.3,395z"/>
			<path id="Greene_5_" opacity="0.2" fill="#818080" stroke="#231F20" stroke-width="2.4971" stroke-miterlimit="10"
				  d="
				M598.2,692.6l6.3,0.1l17.2,0.3l17,0.7l17.7-0.1l-0.3,17.2l-0.4,17.4l0.1,17.3h-2l-8.2,0l-6.9,0l-5.7,0l-12,0.1l-17.7,0.2
				l-12.3-0.4l-5.4-0.2v-0.5l-17.2-0.2L569,727l0.4-17.8l0.1-17.5l17.4,0.7L598.2,692.6L598.2,692.6z"/>
			<path id="Hamilton_5_" opacity="0.2" fill="#818080" stroke="#231F20" stroke-width="2.4971"
				  stroke-miterlimit="10" d="
				M783.4,482.5l-0.1,16.3l0.3,39.2l0,3l-11.5,0.3h-0.6l-6,0.1l-39.9,0.3l-0.1-5.8l-0.4-17.5l0-17.7l-0.1-10.1l-0.2-6.9l17.7-0.5
				l17.7-0.2l17.2-0.2L783.4,482.5L783.4,482.5z"/>
			<path id="Hancock_5_" opacity="0.2" fill="#818080" stroke="#231F20" stroke-width="2.4971" stroke-miterlimit="10"
				  d="
				M827.5,537.2l0.3,14.5l-3.3,0.1l0.1,17.6l-5.6,0l0,17.6l-8.3,0.1l-17.3,0l-17.6,0.4l-6,0.2l-0.5-34.6l2.5-0.1l0.1-11.4l11.5-0.3
				l0-3L827.5,537.2L827.5,537.2z"/>
			<path id="Harrison_5_" opacity="0.2" fill="#818080" stroke="#231F20" stroke-width="2.4971"
				  stroke-miterlimit="10" d="
				M758.1,843.9l0,17.4h2.9l0.1,5.6l3,0l0.2,5.5l3.3-0.1l0,3h3l0.7,15h8.3v1.4l-0.1,0.3l-0.8,1.9l-0.2,4.9l0.5,5.6l0.1,1.7l-0.1,2.8
				l-0.5,2l-0.6,2.1l-0.4,1.6l-0.2,0.8l-0.1,0.8l-0.8,4.8l-0.5,1.3l-2.5,3.1l-0.3,0.3l-0.7,0.3l-0.7,0.2l-1.3,0.5l-1.4,0.3l-0.2,0
				l-4.7,0.9l-0.2,0l-2.6,0.5l-2.4,0.9l-0.7,1l-0.1,0.2l0,0.1l0,2.3l0,1.4l-0.3,0.7l-0.5,0.5l-1,0.4l-1.7-1.3l-1.1-1.5l-2.7-5.2
				l-1.9-1.8l-0.1,0l-2.8-1.2l-2-0.3l-0.5,0l-0.8,0.1L740,925l-1.4,0.4l-0.9,0.3l-0.8,0.2l-0.3,0l-1.2-0.3l-4.4-2l-0.2-0.1l-4.5-3.5
				l-3.1-1.9l-0.6-0.5l-0.3-0.2l-2-2.2l-0.1-0.1l-0.6-1.3l-0.1-0.6l-0.6-3.3l0-2l0.4-2.1l0.9-5l-0.5-1.8l-0.7-1.3l-0.3-0.3l-1.6-1.8
				l-0.6-0.6l-0.7-0.4l-1.1-0.6l-2.2-1.2l-1.5-1.2l0.8-0.6l1.4,0.9h0.7l0.5-0.7l-1.4-1.3l0.3-0.3l0.8,0.1l0.5-2.4l0.4-0.5l1,0.1
				l0.9,0.3l0.6-0.1l-0.8-1.6l0.8-0.3l0.2-0.6l-1.5-1.1l0.1-0.5l0.7-0.6l1.4,0.8l0.7-0.6l0.4-0.7l0.2-5.2l0.1-0.8l0.1-4.3h0.8
				l0.6-1.6l1,0.7l0.3-0.1l0.4-1.4l0.4-0.2l0.1-0.7l-0.3-0.3l-0.9-0.2l-0.7,0.5l0.1-1.9h0.4l0.5-0.2v-0.3l-1.4-0.5l-0.5,0.2l-0.9-0.3
				l-2-1.5l1-1.6l0.2,0.3l0.4,0.4l0.7,0.3l0.1-1l0.1-0.9l-0.5-1.8v-0.4l0.4-0.1l0.5-0.1l-0.5-1.2l-0.3-0.5l0.4-1.3l0.5-1.1l1,0.1
				l0.2,0.8l0.9,0.5l0.7-0.3l0.7-0.9v-0.5l-0.1-0.3l-1.5-0.5l-0.2-2.2l-0.4-0.7l1-0.6l0.5,0.3l0.9-0.6l0.1-0.4l-0.6-0.5l-0.4-0.8
				l0.1-0.6l-0.4-0.8l0.2-1l-0.9-0.7l-0.7,0.1l-0.3-0.5l0.8-0.6l0.7-1.5L758.1,843.9L758.1,843.9z"/>
			<path id="Hendricks_5_" opacity="0.2" fill="#818080" stroke="#231F20" stroke-width="2.4971"
				  stroke-miterlimit="10" d="
				M711.9,542l0.3,11.6h-0.5v2.7l0.2,44.3l-21.4,0.4l0.1,5.8l-17,0.1l-12.5,0l0.4-1.7l0.9-0.8l0.9-1.4v-2.1l-3.9,0l-3.2,0.1l0.1-11.7
				l0.1-17.8l0.1-17.5l-1.3,0.1l-0.1-11.7L711.9,542L711.9,542z"/>
			<path id="Henry_5_" opacity="0.2" fill="#818080" stroke="#231F20" stroke-width="2.4971" stroke-miterlimit="10"
				  d="M883,510.5
				l0.3,14.5h2.1l0.3,25.9h-1.9l-1.1,0.1l0.1,17.1l-3.3-0.1l-9.1,0.4l-7.8,0l-17.5,0.3l-17.2,0.7h-3.2l-0.1-17.6l3.3-0.1l-0.3-14.5
				l0-26.3L883,510.5L883,510.5z"/>
			<path id="Howard_5_" opacity="0.2" fill="#818080" stroke="#231F20" stroke-width="2.4971" stroke-miterlimit="10"
				  d="M782.7,413
				l0.4,32l-58.2,1l-0.1,2.9l0.1,3l-5.8,0L719,449l-4.3,0l-0.1-8.7l-10.1,0l0.2-26h2.7l17.8-0.2l11.6-0.2l5.9-0.1l17.4-0.3l17.3-0.3
				L782.7,413L782.7,413z"/>
			<path id="Huntington_5_" opacity="0.2" fill="#818080" stroke="#231F20" stroke-width="2.4971"
				  stroke-miterlimit="10" d="
				M862.8,324.3v0.5l0.2,17.3l0.2,17.5l0.3,17.6l0.1,17.6l-17.3,0.3l-17.3,0.1l-11.8,0.2l-0.4-23l-0.1-3.3l-0.8-43.3l11.9-0.1v-0.5
				l17.3-0.5L862.8,324.3L862.8,324.3z"/>
			<path id="Jackson_5_" opacity="0.2" fill="#818080" stroke="#231F20" stroke-width="2.4971" stroke-miterlimit="10"
				  d="
				M750.3,717.1l0.1,2.8l34.3-1.1l0.3-0.5l-0.7-0.8l0.1-0.3l0.7-0.5l0.7-0.7l0.7-0.2l0.1-0.7l0.7-0.4l0.2-0.4h1.1l1-0.3l0.7-0.9
				l1-0.3l1.9-0.2l1,0.5l0.2,13.9l0.1,5.7l0.1,11.6v1.6l0.1,1.8l0.1,14.2l0.1,3.4l-0.9,1l0.2,0.3l-0.8,1.9l-0.4,0.6l0.5,1.8l-1,0.5
				l-0.2-0.5l-0.3,0.5l-0.9,0.2l-0.5,0.9l0.1,0.4l-0.3,0.1l-1,1.4l-0.2,2.2l-0.3,0.2l-0.4-0.3l-0.2,0.8l-0.5,0.2l-0.5,0.5l0.2,1.2
				l-0.9,0.2v0.7l-0.6-0.4l-1,1.3l-0.4-0.4l-0.8,0.5l-0.3-0.3l-0.5,0.2l-0.2,0.2l-0.5,0.1l-0.7-0.2l-0.6-0.4l-0.5-0.6h-0.6L780,780
				l-0.7-0.5l-0.7-0.7v-0.3l0.6-0.1l-0.3-0.7l0.4-0.5l-0.7-0.7l-0.5,0.5l-0.4-0.3l-0.5,0.5l-0.3-0.5l-0.9-0.3l-0.5,0.2v0.7l-1.5-0.4
				l0.3-0.9l-1.3,0.3l-0.4-0.5l0.1-1l-1.4,0.8l0.1,0.5l-0.2,0.4l-0.7,0.1l-0.3-1l0.4-0.5l-1.3-0.1l-0.5-0.5l-0.9,0.8l-0.2,1l-1.3,0.5
				l-0.5-0.2l-0.2-1.2l-0.7,0.3v-1.5l-1.1-0.5l-1.2,1.4l-0.7-0.2l-0.8,0.9h-0.8l-0.3-0.3l-0.2-0.6l0.4-0.9l-0.7-0.3h-0.4l-0.7,1.2
				H758l-1.4,0l-0.5-0.2l-0.9-1.6l-1.9-1.6l-1,0.2l-0.7,0.7l-1.1-1.2l-2-0.7l-0.8,0.4l-0.3,0.5l-0.3,1.1l0.3,1.1l-0.7,0.6l-0.5-0.4
				h-1.6l-1.3,0.6l-1.6,0.3l-1.2-0.7l-2-0.7l-1.5-1.1l-0.5,0.5l-1-0.1l-0.7-0.6l-0.3-1l-0.5-0.3l-0.6,0.2v0.7l-0.2,0.3l-1-0.1
				l-0.4-0.2L732,771l-0.9-0.2l-0.3,0.5l-0.5,0.3l-0.7-0.2l-0.3,0.4v1.1l-0.6,0.2l-0.4-0.3l-0.1-1l-0.7-0.2l-1.6,1.8l-0.2,0.4
				l-0.9,0.5l-1-0.5h-0.8l-0.3-0.8l-1,0.5l-0.1,0.8l-1.2-0.1l-0.7,0.4l-0.6-34.1l-0.1-5.9l0.1-6h-6.1l-0.1-8.5v-2.6l4.7,0.2l2.1,0
				l4.5,0.2l24.2-0.6L750.3,717.1L750.3,717.1z"/>
			<path id="Jasper_5_" opacity="0.2" fill="#818080" stroke="#231F20" stroke-width="2.4971" stroke-miterlimit="10"
				  d="
				M620.8,278.3l0,1.4l-0.2,11.6l-0.1,17.3l-0.1,17.6l0.1,17l-8.9,0l0,14.6l-8.2,0l-8.9,0.1l-0.1,20.4l-8.4,0l-17-0.3l0.1-17.4
				l0-17.7h-1.2l-0.1-5.5l0.4-11.7l0.1-17.6l0.2-17.4l0-9.1l7.6-3.3l1.2-1.3l3.1-3.5l1-1.2l1-0.5l3.9-1.7l4.4-1.9l1.9,0.2l5.5,2
				l3.4,1.3l2.3,1.9l8.8,6.5l1,1.2l0.8,0.4h1l1.7-1l2.4-0.7l0.7-0.6L620.8,278.3L620.8,278.3z"/>
			<path id="Jay_5_" opacity="0.2" fill="#818080" stroke="#231F20" stroke-width="2.4971" stroke-miterlimit="10" d="M944.8,410.2
				l0.4,43.9l0.1,8.6l-14.5,0.3l-18.1,0.3l-17.1,0.4l-13.5,0.3l-0.5-14.4l1.8-0.1l0.3,0.1l-0.2-20.4l0.8,0l-0.2-17.6l14.4-0.3
				l5.7-0.2l11.8-0.3l17.4-0.5L944.8,410.2L944.8,410.2z"/>
			<path id="Jefferson_5_" opacity="0.2" fill="#818080" stroke="#231F20" stroke-width="2.4971"
				  stroke-miterlimit="10" d="
				M849.9,743.9l9.1-0.2l2.3-0.1h3.3l17.5-0.4l5.7-0.3l0.7,45.2l-1.8-0.9l-0.2-0.2l-2.7-3l-1.2-1.9l-0.9-1.4l-0.8-0.9l-0.1-0.1
				l-1.8-1l-3-0.4l-0.5,0l-2.1,0l-3.3,0.5l-0.1,0l-1.9,0.7l-0.5,0.1l-3.9,0.9l-3-0.2l-0.2,0l-2.2-0.5l-1.4-0.3l-1.8,0.1h-0.1
				l-2.7,1.4l-0.7,0.7l-0.2,0.3l-2.1,4.1l-0.1,0.2l-0.2,1.3l0.1,1.6l0.1,0.8l0.4,0.9l0.1,0.1l1.3,2.3l0.1,0.1l0.8,2.2v7l0,2l0.5,2.9
				l1,2l0.1,0.2l-8,0l-0.1-1.2l-2.8,0l-0.1-2.9l-11.5,0.3l-0.1-9l-0.1-5.5h-5.9l-0.2-5.8h-0.9l-2.3,0h-2.6l-0.1-4.5h-2.8l-0.1-1.7
				l-3.1,0.1l-0.1-15.3v-1.9l7.2-0.2v1.6h1.4v-1.6l3-0.1l-0.2-5.6l5.9-0.1l-0.2-5.7l5.8-0.1l-0.3-6.2l9.1-0.2h0.8l1.9-0.1
				L849.9,743.9L849.9,743.9z"/>
			<path id="Jennings_5_" opacity="0.2" fill="#818080" stroke="#231F20" stroke-width="2.4971"
				  stroke-miterlimit="10" d="
				M850.1,687.5l-0.2,27.6l0,1.1l0,27.7l-2.8,0l-1.9,0.1h-0.8l-9.1,0.2l0.3,6.2l-5.8,0.1l0.2,5.7l-5.9,0.1l0.2,5.6l-3,0.1v1.6h-1.4
				v-1.6l-7.2,0.2v1.9l-1.1-0.1l-0.5-0.4l-0.5,0.6l-0.9-0.4l-0.4-0.6l-0.1-1.1l-1-0.8l-0.5,0l-0.7,0.6l0.3,0.5l-0.2,0.1l-1.2-0.3
				l-0.6,0l-0.8,0.5l-0.3,0.5l-0.7,0.2l-1.3-0.1l-0.5-0.3l-0.7,0.3l0.2,0.7l-0.7,0.5l-0.3-0.5l-0.8,0.2v0.7l-0.5,0.4l-0.8-0.7
				l-0.5,0.2l-0.5,1l-1.9-0.1l-0.1-3.4l-0.1-14.2l-0.1-1.8v-1.6l-0.1-11.6l-0.1-5.7l-0.2-13.9l-0.1-3.4l-0.1-8.7l17.3-0.4l19-0.5
				L850.1,687.5L850.1,687.5z"/>
			<path id="Johnson_5_" opacity="0.2" fill="#818080" stroke="#231F20" stroke-width="2.4971" stroke-miterlimit="10"
				  d="
				M769.9,599.3l0.2,58.3l-4.5,0.1h-1.4l-5.4,0.1l-9.4,0.2H747l-5.7,0.2l-17.3,0.5l-0.1-17.8l0-17.3l0.3-17.4l-0.1-6L769.9,599.3
				L769.9,599.3z"/>
			<path id="Knox_5_" opacity="0.2" fill="#818080" stroke="#231F20" stroke-width="2.4971" stroke-miterlimit="10"
				  d="M591,745.3
				l0.5,0.6l-0.1,0.7l-0.7,0.2l-0.5-0.4l-0.6-0.1l-1,1.1l-0.7,1l-0.6,0.4l-1.1,0.8l0.5,1.5l0.6,0.7v0.5l-0.7,0.5l-0.6-0.3l-0.4-0.8
				l-0.4-0.2l-0.4,0.3l-0.2,0.6l0.5,0.7l-0.1,0.6l0.4,0.5l0.7-0.1v0.8l-0.9-0.1l-1.8-1.7l-0.4,0.1l-0.2,0.4l1.1,1.3l-0.5,1.3l0.7,0.6
				l-0.5,0.5l0.3,0.8l-0.7,0.9l-0.8,0.2l-0.7-1l-1.1-0.4l-0.3,0.2l-0.8-0.6l-0.8,0.5l-0.9-0.1l-0.4-0.5l-0.6,0.3l0.2,0.5l1.6,0.4
				l0.3,0.9l-0.3,0.4l0.5,0.5v0.5l-0.7,0.3l-1-1.1h-0.6v1.3l-0.3,0.5l-0.6-1.1l-0.5-0.2l-0.4,0.4l-0.2,0.4l0.2,0.4l1.1,0.5l0.1,0.6
				l-0.5,1.2l-0.6-0.4l-0.3-1.6l-0.8-0.4l-0.4,0.5l0.4,1.7l-0.8,0.7l-0.4,0.9l-0.5-0.2l0.4-2.3l0.1-0.3l-0.5-0.5l-0.8,0.3l0.6,2.1
				l-0.6-0.1l-0.6,0.4l-0.4,1.2h-0.5l-0.2-0.4l0.4-1.3l-0.8-0.3l-0.6,0.6l-0.5-0.1v-0.7l0.7-0.4l-0.8-0.6l-1.2,2.5l0.8,1l-0.3,1.1
				l0.5,1.5l-0.1,1.6l-0.6,0.5l-1.3-0.2l-0.7,0.3l-0.3,1.9l0.5,0.8l0.7,0l0.8-0.8l0.8,0.3l-0.8,2.2l-0.6-0.4l-0.6,0.1l-0.2,0.5
				l1.3,1.4l0.7,0.9l0.3,0.5l-0.7,0.3l-0.7-0.5l-1.2,1.4L566,780l1.2,0.5l-0.1,0.8l-0.7,0.1l-0.8-0.7l-0.2-0.4v-0.5l-0.4-0.1
				l-0.4,0.7l0.4,1l0.7,0.7v0.7l-1,0.6l-0.2,0.9l-0.9,0.6l0.5,1.5l-2,1.4l1.2,1l1.2,0.1l0.4,0.1v0.5l-1.3,0.2L563,790v0.4l1.8,1.5
				l0.1,0.9l0.2,0.5l1.3-2.1l0.4-0.5l0.6,0.3l-0.1,0.9l-1.5,1.6l-0.5,0.9l0.7,1.3l2-1.3l0.6,0.3l-0.4,1.3l0.4,1h-0.7l-0.9-1l-0.6,0.3
				l0.1,1.1l1.2,0.4l0.2,1.4l1,0.4l-0.7,0.6l-0.7-0.2l-0.6-0.5l-0.7,0.8l0.6,1.3l1.4,1.6v1.5l-0.7-0.1l-0.8-1l-0.8,0.5l0.5,0.7l2,1
				l-0.4,0.7l-1.1,0.2l-0.1,0.3l0.7,0.7l-0.7,0.9l-0.1,0.6l0.5,1l1.1,0l0.3,0.3l-0.1,1l-0.7,0.8h-0.7l-0.4,0.5l1.1,0.6l0.7,0.8
				l-0.4,0.5l-1.4,0.1l0.2,0.5l1.4,0.7l-0.7,1.6l-0.3,0.3h-0.7l-0.4,0.5l-0.8,1.6l0.1,1.2l-3.2,1.4l-2.2,1.6l-2.1,0.3l-0.8-1.7
				l-3.8-1.9l-3.1-2.9l-1-0.4l-1.2,0.2l-0.7,1l0.3,1.2l1,1.4l0.1,0.5l-0.5,1.4l-0.8,0.8l-0.8-0.1l-0.8-0.6l-0.4-1l0.5-2.3l-0.6-1.2
				l-0.7-0.3l-1,0.1l-1.1-0.5l-0.7,0.2l-0.5,0.5l-0.1,2.2l-0.9,0.1l-1-0.7v-1.5l-0.5-0.6l-1.1,0.5l-0.1,1.7l-0.6,0.3l-1.5-0.9
				l-2.7-0.1l-0.3,0.2l-0.2,0.1l-0.2,1.6l-0.4,0.4l-0.3,0.5v0.7l-0.8,1l-2.4,1.1l-0.3,1.7l-0.5,0.3l-0.8,0.1l-2-1.7l-0.8-0.1
				l-1.5,1.1l-0.5-0.1l-0.3-0.9l0.7-1.4l-0.1-0.7l-1-0.8h-0.7l-1,0.4l-0.5,1l0.5,0.6l0.2,1.3l0.7,0.6l0.1,1.6l-2.7,0.4l-2.4-0.3
				l-0.7-0.6l-0.3-1.1h-0.7l-0.6,1.2l0.4,1l0.6,0.5l0.1,0.5l-1.5,2.7l-0.2,1.6l-1.4,2.3l-2,0.8l-1.6-0.7l-0.9,0.3l-0.1,0.4l-0.6,0.7
				l-0.7-0.1l-0.4-0.5l0.2-1.3l-0.6-0.7l-0.7,0.2l-0.9-0.5l-0.7-0.2l-0.4,0.2l-1.1,1.8l-1.1-0.1l-0.2,0.4l0.3,1.1l1.4,0.7l0.1,1.1
				l-1.7,0.7l-1.3-0.6l-4.4,2.6l-2.1,0.5l-2-0.3l-1.4,0.6l0.1-0.5l0-0.5l0.1-0.8l0.1-0.9l0-0.2l0.1-0.6V839l0.1-0.2l0.1-0.7l0.2-0.5
				l0.5-0.4l0.4-0.3l0.4-0.5l0.1-0.4v-0.2l-0.1-0.3l-0.1-0.1l-0.1-0.2l-0.2-0.3l-0.1-0.1l-0.2-0.1l-0.1-0.1l-0.5-0.1l-0.5,0l-0.7-0.1
				l-0.3-0.1l-0.1-0.1l-0.1,0l-0.2-0.1l-0.2-0.2l-0.1-0.1l-0.1-0.6v-0.2l0-0.1l0.2-0.7l0.3-0.6l0.4-0.5l0.1-0.1l0.5-0.5l0.5-0.5
				l0.6-0.3l0.3,0l0.5-0.1l0.5,0l0.1,0l0.5,0l0.8,0l0.5,0l0.7,0l0.7-0.1l1.1-0.4l0.3-0.2l0.8-0.4l0.8-0.4l0.4-0.2l0.7-0.6l0.1-0.2
				l0.3-0.5l0.5-0.7l0.3-0.6l0.3-0.5l0.3-0.4l0.2-0.2l0.3,0h0.2l0.1,0.1l0.2,0.1l0.3,0.3l0.4,0.2l0.2,0.1l0.3,0.1h0.3l0.2,0l0.5-0.2
				l0.4-0.2l0.3-0.4l0.2-0.5l0.1-0.5l-0.1-0.5l-0.1-0.5l-0.1-0.2l-0.2-0.3l-0.3-0.5l-0.4-0.3l-0.3-0.3l-0.3-0.5l-0.2-0.3l-0.3-0.7
				l-0.3-0.8l-0.5-0.9l-0.4-0.6l-0.1-0.2v-0.1l0.1-0.3l0.1-0.1l0.5-0.5l0.6-0.5l0.4-0.2l0.5-0.3l0.5-0.6l0.1-0.1l0.2-0.4l0-0.6
				l0.1-0.5l0.1-0.4V812l0.1-0.2l0.2-0.3l0.1-0.1l0.1-0.1l0.2-0.1l0.4-0.3l0.3-0.3l0.2-0.3l0.2-0.5l0-0.4V809l-0.1-0.5l0-0.3l0.1-0.4
				l0-0.2l0.1-0.3l0.1-0.1l0.2-0.2l0.1,0h0.3l0.3,0.1l0.5,0.5l0.3,0.2l0.5,0.2l0.4,0.1l0.6,0.1h0.4l0.3-0.2l0.1-0.3l0-0.2l-0.1-0.6
				l-0.3-0.5l-0.1-0.1l-0.3-0.1l-0.2-0.1l-0.1-0.1l-0.6-0.3l-0.3-0.4l-0.1-0.2l-0.1-0.2l0.1-0.7l0.2-0.6l0.2-0.4l0.2-0.4l0.1-0.4
				v-1.2l0.2-0.4l0.2-0.4l0.3-0.4l0-0.1l0-0.3l0-0.5l-0.2-0.5l-0.1-0.5v-0.3l0.1-0.4l0.3-0.3l0.1-0.1l0.3-0.3l0.5-0.1l0.3-0.2
				l0.4-0.3l0.3-0.4l0.2-0.5l0.2-0.7l0.1-0.5l0.3-0.6l0.3-0.6l0.1-0.2l0.8-0.6l0.6-0.3l0.4-0.2l0.5-0.2l1.2-0.5l1-0.3l1.3-0.2
				l1.2-0.3l0.1,0l1.5-0.5l1.1-0.4l0.8-0.7l0.3-0.2l0.4-0.4l0.6-0.8l0.5-1.1l0.2-1.1l0.1-0.4l0-0.2l0.1-0.6l0-0.1l0.1-0.5l0-0.2
				l0.1-0.5l0.2-0.4l0.3-0.5l0.3-0.5l0.3-0.3l0.3-0.4l0.2-0.5l0.2-0.3l0.3-0.6l0.4-0.6l0.3-0.4l0.3-0.3l0.2-0.5l-0.1-0.5l-0.2-0.3
				l-0.3-0.3l-0.2-0.3l0-0.4v-0.5l0.2-0.5l0-0.1l0.1-0.5l0.2-0.5l0-0.2l0.1-0.3v-0.5l-0.3-0.3l-0.5-0.1l-0.5,0.1l-0.3,0.1l-0.2,0H526
				l-0.2,0l-0.1,0l-0.2-0.1l-0.2-0.3l0.1-0.3l0.1-0.1l0.1-0.1l0.2-0.1l0.3-0.1l0.4-0.2l0.2-0.1l0.3-0.1l0.4-0.2l0.1-0.1l0.1-0.1
				l0.1-0.1l0.2-0.2l0.1-0.2v-0.4l-0.1-0.6l-0.2-0.5l-0.1-0.3l-0.2-0.3l-0.6-0.7l-0.1-0.2l-1.2-1.6l-0.7-1l-0.4-0.7l-0.4-0.7
				l-0.3-0.4l-0.1-0.2l-0.1-0.2l0.1-0.6l0.2-0.4l0.3-0.3l0.1-0.3l-0.1-0.5l-0.2-0.6l-0.1-0.1l-0.1-0.1l-0.3-0.6l-0.1-0.6v-0.5
				l-0.1-0.4l0-0.3l-0.1-0.3l-0.1-0.4l-0.1-0.2l-0.2-0.2l-0.2-0.2l-0.8-0.6l-0.1,0l-1.3-0.4l-0.4-0.1l-0.3-0.2l-0.3-0.4l-0.2-0.4
				l0-0.2l0-0.1l0.1-0.2l0.2-0.1l0.3-0.1l0.3,0l0.1-0.1l0.2-0.2l0.2-0.3l0-0.3l-0.1-0.2l-0.1-0.3l0-0.3l0.1-0.4l0.1-0.1l0.1-0.2
				l0.3-0.2l0.4-0.2l0.3-0.1l0.4-0.3v-0.6l-0.4-0.3l-0.5-0.5l-0.1-0.1l-0.3-0.4l-0.1-0.3l0-0.2l0.1-0.5l0.2-0.2l0.2-0.1l0.3,0.2
				l0.3,0.1l0.3,0.1h0.2l0.2-0.1l0.2-0.5l0.5-0.4l0.2-0.1l0.3-0.2l0.5-0.2l0.4-0.1l0.4-0.1l0.1-0.1h0.1l5.7,0.2l19.5,0.4l17.9,0v-1.1
				l17.2,0.2v0.5L591,745.3L591,745.3z"/>
			<path id="Kosciusko_5_" opacity="0.2" fill="#818080" stroke="#231F20" stroke-width="2.4971"
				  stroke-miterlimit="10" d="
				M813.5,238l0.3,17.3l0.3,11.5l0.2,5.7l0.1,17.7l-5.4,0l0.4,17.9l0.2,8.6l-39.6,1l-10.8,0.2l-0.2-9l-8.8,0.3l-0.3-17.7h3.6l-0.6-26
				l-0.3-26.1v-0.6l8.8-0.2l17.1-0.1l17.7-0.1L813.5,238L813.5,238z"/>
			<path id="LaGrange_5_" opacity="0.2" fill="#818080" stroke="#231F20" stroke-width="2.4971"
				  stroke-miterlimit="10" d="
				M867.7,172.9l10.5-0.1h3.5l0.4,11.8l0.3,17.7l0.3,17.2l-17.2,0.3l-17.4,0.2l-17.5,0.4l-17.4,0.3l-0.4-17.5l-0.3-17.4l-0.3-12.4
				l12.7,0L867.7,172.9L867.7,172.9z"/>
			<path id="LaPorte_4_" opacity="0.2" fill="#818080" stroke="#231F20" stroke-width="2.4971" stroke-miterlimit="10"
				  d="
				M637.2,173.4l6.7,0.1l2.1,0l4.4,0l15,0.1l16.6,0.1h0.7l-0.2,10.4l-0.1,7.1l-0.1,3.2v1.5l3,0l3,0.2l0.1,14.5l-1.8,2l0,7.2l-0.3,0.5
				l-0.2,1.6l-3.5,0.1l-0.1,17.3l-8.7,0.1l-9-0.1l-4.4,4l-1.7,0.4L656,245l-0.6,0.7l-0.7,2.2l-0.3,1.8l-0.6,1.1l-1.9,2.9l-0.1,1.7
				l-0.6,1.1l-0.6,0.9l-0.6,0.7l-0.4,1.8l-0.2,1.4l-1,1.1l-2.5,1.9l-2.1,2.8l-1.2,1.6l-4.5,2.3l-1.5,0.3l-0.4,0.2l-2-0.2l-1,0.9
				l-3.6,0.5l-1.1,0.9l-2.1,0.7l-0.9,0.3l-2.8,1.9l-0.7,0.1l-1.1,1.4l-0.3,0.2l0.1-3.7l0-6.3l-0.1-10.5v-1.5l0-2.9l0.1-2.7l0.1-11.9
				l0.2-17l-0.3-8.6l0.2-9.1l-0.1-17.7v-2.9l0-0.4l1.5-0.5l0.9-0.4l0.6-1.4l0.5-0.2l0.2-0.5l0.9-0.5l1.5-0.6l1.5-0.8l1.2-0.6l1.8-1
				l2.8-1.6l0.9-0.5L637.2,173.4L637.2,173.4z"/>
			<path id="Lake_5_" opacity="0.2" fill="#818080" stroke="#231F20" stroke-width="2.4971" stroke-miterlimit="10"
				  d="M532.2,181.8
				l0.1,0.1l1.5,1.6l-0.4,0.5l0.4,0.5l2,1.8l1.1,1l1.1,0.5l0.3,0.6l0.9,0.5l0.8,0.7l1.5,0.7l1.7-0.5l1.6,1.9l0.6-0.2l0.1-1.5l1.7-1.4
				l1,1l-3.3,3.7l2.5,2.5h0.9l1,0h0.2l0.7,0.5l1.8,0.7l2.6,1.1l0.6,0.3l2.6,0.7l2.3,0.5l1.7,0l0.8,0.8l1,0.4h2.2l0.7,0.1l1.9-0.1
				l2-0.1l7.2-0.7v1.9l0,2.3l0,6.8l0,21.4l-0.2,17.7v2.9l-0.1,4.3l0,4v2.9l0.1,3v3l-0.1,1.5v4.9l0.1,0.2l-1.2,1.3l-7.6,3.3l-1.5,0.6
				L561,288l-1.1,0.6l-1.4,0.1h-0.7l-5.4,1.9l-2.1,2h-1.8l-1.4,0.1l-4-2.3l-0.8-0.2l-0.3-0.1l-1.6,0.8l-3.2,0l-7,0.7l0.3-20.2l0-6.3
				l0.2-22.1l0.3-12.6l0.4-16.1l0.7-28.6L532.2,181.8L532.2,181.8z"/>
			<path id="Lawrence_5_" opacity="0.2" fill="#818080" stroke="#231F20" stroke-width="2.4971"
				  stroke-miterlimit="10" d="
				M713.2,728.5h6.1l-0.1,6l0.1,5.9l0.6,34.1l-0.7,0.3l-0.4,0.6l-0.8,1.4l-0.1,1.2l-0.4,0.6l0,1.8l-1.4,0.3l-0.5-0.3l-1.3,0.5
				l0.3,9.1h-38.8l-2.9,0l-17.3,0.1l0.1-26.5V763l0-6l0-11.4l-0.1-17.3l17.6,0.1l17.5,0.1h2.6l11.8,0h2.9L713.2,728.5L713.2,728.5z"
				/>
			<path id="Madison_5_" opacity="0.2" fill="#818080" stroke="#231F20" stroke-width="2.4971" stroke-miterlimit="10"
				  d="
				M826.7,450.3l0.8,60.6l0,26.3l-44,0.7l-0.3-39.2l0.1-16.3l-0.2-31.7L826.7,450.3L826.7,450.3z"/>
			<path id="Marion_5_" opacity="0.2" fill="#818080" stroke="#231F20" stroke-width="2.4971" stroke-miterlimit="10"
				  d="
				M725.5,541.6l39.9-0.3l6-0.1h0.6l-0.1,11.4l-2.5,0.1l0.5,34.6l0,11.8l-45.8,1l-12.2,0.3l-0.2-44.3v-2.7h0.5l-0.3-11.6l4.6-0.2
				l3.3-0.1L725.5,541.6L725.5,541.6z"/>
			<path id="Marshall_5_" opacity="0.2" fill="#818080" stroke="#231F20" stroke-width="2.4971"
				  stroke-miterlimit="10" d="
				M752.5,230.2v2.9l0.1,5.5v0.6l0.3,26.1l0.6,26h-3.6l-5.4,0.1l-2.3,0.1l-14,0.1h-3.1l-15.9,0.1h-1.6l-9.7,0l-7.1,0.2l0-7.2v-2.5
				l0.1-9.2l0.1-14.2v-5.7l0-2.1l-0.1-8.7v-3.1l0-5.5v-3h0.4l1.3,0h3.1l8.7-0.2l4.4-0.1h2.9l3.6-0.2l10.9-0.1l11.7-0.1l2.1,0h6.7
				l2.9,0H752.5L752.5,230.2z"/>
			<path id="Martin_5_" opacity="0.2" fill="#818080" stroke="#231F20" stroke-width="2.4971" stroke-miterlimit="10"
				  d="M621,745.5
				l12-0.1l5.7,0l6.9,0l8.2,0h2l0,11.4l0,6v0.4l-0.1,26.5l0,5l0,3.1v0.3l0.1,17.5l0,6.3l-17.6-0.1h-2.6l-2.2,0h-2l0.3,0.6l-1.4,1.6
				l-1.8,1.1L626,826l-0.8,0.8l-0.2,1.1l-0.5,0.3l-1.8-0.2l-1.4-1.2l-1.2,0.3l-1,0.8l-1.3-0.8l-0.2-1l0.6-62.9l2.9-0.1l-0.1-5.8
				L621,745.5L621,745.5z"/>
			<path id="Miami_5_" opacity="0.2" fill="#818080" stroke="#231F20" stroke-width="2.4971" stroke-miterlimit="10"
				  d="M769.8,326.3
				v0.4l1.1,56l0.1,3.4l0.2,9.6l6,0l5.5-0.1l0.1,17.3l-5.5,0.1l-17.3,0.3l-17.4,0.3l-5.9,0.1l-0.4-16.1l-0.2-7.3l-0.3-7.2l0.2-5.4
				l0-33.5l0-8.9v-1.2l0.2-7.3l5.8-0.2l16.8-0.1L769.8,326.3L769.8,326.3z"/>
			<path id="Monroe_5_" opacity="0.2" fill="#818080" stroke="#231F20" stroke-width="2.4971" stroke-miterlimit="10"
				  d="
				M664.5,657.3v1.4l9,0.4l17.1,0.1l12.7-0.1l0.1,14.4l0.1,3.1l1.2,0.1l0.4,25.5l0,2.6v5.4l-0.1,2.4v4.9l8.1-0.1v2.6l0.1,8.5
				l-5.2-0.1h-2.9l-11.8,0h-2.6l-17.5-0.1l-17.6-0.1l0.4-17.4l0.3-17.2l-0.1-17.4l-0.1-16.7l3,1.1l0.3-0.5l0.5,0.1l0.7,0.5l0.4-0.5
				l-0.4-1.9l0.1-1.2l0.7-1.4l0.5,0.1l1.5,1.5L664.5,657.3L664.5,657.3z"/>
			<path id="Montgomery_5_" opacity="0.2" fill="#818080" stroke="#231F20" stroke-width="2.4971"
				  stroke-miterlimit="10" d="
				M655.2,483.6l-0.1,7.2l0,10.1l0.1,17.6l0.1,17.6l0,6l0.1,11.7l-15.3-0.2h-2.1l-14.1-0.4l-3.3-0.2l-14-0.3h-3.8l-9-0.1l0.2-17.1
				l0.3-52.8l8.7,0.2l17.4,0.2l17.3,0.4L655.2,483.6L655.2,483.6z"/>
			<path id="Morgan_5_" opacity="0.2" fill="#818080" stroke="#231F20" stroke-width="2.4971" stroke-miterlimit="10"
				  d="
				M724.1,600.2l0.1,6l-0.3,17.4l0,17.3l0.1,17.8l-16.8,0.3l-3.9,0.1l-12.7,0.1l-17.1-0.1l-9-0.4v-1.4l-0.1-24.4l-8.3-0.1l0-8.9v-2.3
				l2.4-1.6l2.7-2.7l0.7-1.6l-0.5-2.3l-0.3-4l-0.1-2l0.1-0.7l12.5,0l17-0.1l-0.1-5.8l21.4-0.4L724.1,600.2L724.1,600.2z"/>
			<path id="Newton_5_" opacity="0.2" fill="#818080" stroke="#231F20" stroke-width="2.4971" stroke-miterlimit="10"
				  d="
				M568.3,281.5l0,9.1l-0.2,17.4l-0.1,17.6l-0.4,11.7l0.1,5.5h1.2l0,17.7l-0.1,17.4l-17.6-0.1l-16.7-0.2l-5.5,0v-0.7l0.3-19.6
				l0.5-28.5l0-0.5l0-6.2l0.3-21.8l0.1-8.6l7-0.7l3.2,0l1.6-0.8l0.3,0.1l0.8,0.2l4,2.3l1.4-0.1h1.8l2.1-2l5.4-1.9h0.7l1.4-0.1
				l1.1-0.6l5.8-5.8L568.3,281.5L568.3,281.5z"/>
			<path id="Noble_5_" opacity="0.2" fill="#818080" stroke="#231F20" stroke-width="2.4971" stroke-miterlimit="10"
				  d="M882.7,219.5
				l0.3,17.7l0.2,17.6l0.3,17.6l-17.5,0.1H866l-17.4,0.1l-17.3,0l0-5.7l-17.3,0.1l-0.3-11.5l-0.3-17.3l0.1-7l-0.3-10.4l17.4-0.3
				l17.5-0.4l17.4-0.2L882.7,219.5L882.7,219.5z"/>
			<path id="Ohio_5_" opacity="0.2" fill="#818080" stroke="#231F20" stroke-width="2.4971" stroke-miterlimit="10"
				  d="M938.7,718.9
				l2.8,3.4l0.9,1.4l1,1.7l1.3,2.2l0.1,0.3l0.1,0.2l0.6,2.4l0.1,1.5l-0.1,0.4l-0.4,0.7l-0.8,1l-2.6,2.9l-0.1,0.1l-0.7,0.8l-1.3,1.5
				l-0.5,0.6l-0.1,0.2l-0.4,1.2l0,0.2l0.2,0.8l0.5,0.9l1.4,1.4l0.7,0.3l-44.4,0.3l0.7-5.3l0.6-3.7l0.9,0l1.2-1.6l1.1-0.1l0.1,0.6
				l-1.2,1.7l0.3,1.3l0.4,0.4l0.7,0l0.7-0.7l0.8-0.3l0.7,0.7l0.5,0.3l0.6-1.2l0.5-0.3l0.7-1.7l0.4-0.3l0.8,0.8l0.5,0.1l0.4-0.1
				l0.7-0.4l1.2,0.4l0.2-0.6l-0.2-1.3l0.7-0.4l0.6-0.7v-0.9l0.7-0.3l1-1.4h1l1.4,0.4l0.7-1.6l1.1,0.3l1.1,0.5l0.8-1l-0.2-0.8l0.6-1.8
				l0.6-0.3l0.2,0.3l0.4,0.3l0.9-0.1l0.4-0.3l2.1,0.7l0.7-1l0.7,0.6l0.9-0.1l0.3-0.4l0.8-0.4l0.4-0.4l-0.4-1.4l0.7-0.5l0.6,0.2
				l0.3,0.6l1.1-0.8l0.7-1.3l0.5,0.4l0.5-0.3l0.9-0.8h0.4l1.9,1.1L938.7,718.9L938.7,718.9z"/>
			<path id="Orange_5_" opacity="0.2" fill="#818080" stroke="#231F20" stroke-width="2.4971" stroke-miterlimit="10"
				  d="
				M714.6,789.8l-0.1,53.1l0.4,5.1l-8.6-0.2l-3.1,0l-34.1,0l-7.4,0l-1.2,0h-4.7v-4.6l-0.1-3.8l0-17.4l0-6.3l-0.1-17.5V798l0-3.1l0-5
				l17.3-0.1l2.9,0H714.6L714.6,789.8z"/>
			<path id="Owen_5_" opacity="0.2" fill="#818080" stroke="#231F20" stroke-width="2.4971" stroke-miterlimit="10"
				  d="M656,632.9
				l8.3,0.1l0.1,24.4l-1.1,0l-1.5-1.5l-0.5-0.1l-0.7,1.4l-0.1,1.2l0.4,1.9l-0.4,0.5l-0.7-0.5l-0.5-0.1l-0.3,0.5l-3-1.1l0.1,16.7
				l0.1,17.4l-17.7,0.1l-17-0.7l-17.2-0.3l-6.3-0.1l0.6-34.7l6.1,0.2l11.1,0.1l0.5-26.3h2.1l3.4,0.1L656,632.9L656,632.9z"/>
			<path id="Parke_5_" opacity="0.2" fill="#818080" stroke="#231F20" stroke-width="2.4971" stroke-miterlimit="10"
				  d="M594,535.4
				l-0.2,17.1l9,0.1h3.8l0.1,9.3l-0.2,8.4l-0.3,17.5l-0.3,17.8l-17.4-0.6l-11.8-0.5l-5.7-0.2l-17.6-0.2l-5.1-0.1l0.2-1.3l-0.8-1.9
				l-0.5-0.6l-0.5-1.4l0.2-1.6l-0.6-1.6l0.2-1.5l0.8-0.8l0.2-0.7l-0.2-1L547,591l1.6-3.8l-0.6-1.6l0.9-1.3l-0.7-2.2l1.2-4.9l-0.2-4.8
				l0.3-1l0.4-1.2l0.1-0.4v-0.7l-0.1-1.2v-0.8l-1.2-3.6l0.2-5.3l1.6-0.2l0.8-1l0.7-1.7l0.1-1l0.7-0.4l0.4-0.7l-0.3-0.5l-2.2-0.7
				l-1.4-1.6l0-0.4l1.7-1.2l0.1-0.4l-0.7-2.3l-0.8-1.2l-0.9-0.7l-1.1-0.1l-2.8-1.4l-0.5-1.1l1.4-1.2l-0.4-0.7l-0.8-0.1l-1.3,0.6
				l-2-1.1l-0.2-0.7l1.9-1.8l0.5-1.7l-0.2-0.4l7.3,0.1l17.3,0.1l17.8,0.2L594,535.4L594,535.4z"/>
			<path id="Perry_5_" opacity="0.2" fill="#818080" stroke="#231F20" stroke-width="2.4971" stroke-miterlimit="10"
				  d="M655.9,874.7
				h2.1l15-0.1l-0.1,11.3l17.5,0.1l-0.2,15.7l-0.1,3.2l-0.2,0.8l0.3,0.9l0.2,0.3l1.1,1.1l0.2,0.1l0.8,0.3l0.9,0.4l0.8,0.8l0.3,0.4
				l0.1,0.2l0.5,1.3l0,0.2v0.4l-0.1,1l-0.1,0.5l-0.3,0.5l-0.9,1.5l-2.1,2.2l-2.2,0.7l-3.2,0.2l-0.5,0l-1.5-0.1l-0.5,0l-0.3,0
				l-1.1,0.4l-0.3,0.2l-0.3,0.2l-0.6,0.7l-0.6,1.7l-0.1,0.6l-0.1,1.3l-0.1,0.9l-0.2,2.8l0,0.3l0,0.5l0,4.5l0.8,2.5l1.4,2.7l0.1,0.1
				l0.5,1l0.2,0.6l0.1,0.5l-0.4,1.6l-1.3,1.4l-1.9,0.8l-3.2-0.1l-0.5-0.1l-4.7-0.5l-1.8,0.8l-0.7,0.8l-0.2,0.5l-0.3,1.2l0.1,2.7
				l0.2,2.7l0,0.2l-0.4,1.9l-0.2,0.5l-0.3,0.5l-0.2,0.3l-2,1.8l-0.1,0.1l-2.7,1.5l-1.5,0.6l-2-0.3l-0.8-0.6l-0.1-0.1l-0.6-0.9
				l-0.2-1.2l0.2-0.6l1.4-4.7l1-3.2l-0.1-1.6l-0.2-0.3l-0.2-0.3l-2-1l-1.8,0l-0.5,0.1l-0.4,0.2l-0.8,0.5l-4.2,3l-0.7,0.2l-0.9,0.2
				l-0.6-0.1l-0.3-0.1l-2.2-2.1l-0.2-0.2l-1.8-2.2l-1.7-3.5l-0.9-1.9l-0.6-1.4l-0.8-2.3l-2-5.3l-1.8-1.4l-2.1-0.9l1.8-0.5l0.9-1
				l0.4-0.6l1.4,0.7l1.1,1.2l1.5,0.4h0.5l0.2-0.4l-0.4-2.1l-0.2-2.8l-0.3-1.5l-0.5-0.9v-0.8l0.1-0.7l-0.2-0.5l-0.3-0.5l0.4-1l0.9-0.2
				l1.4-0.8l-1-1l-0.5-1.4l-0.5-1.1l-0.4-0.5l1.3-1.1l0.5-0.5v-3l-0.5-0.8l-0.7,0.3L640,907l-0.4,0.1l-0.6-0.5l-0.6-0.3l-0.6-2.3
				l-0.4-1.6l-0.4-1.1l-0.5-1.8l-0.8-0.5l-0.2-0.3l0.4-0.5l0.2-0.3l0.4-0.5l0.4-0.5l0.6-0.9l-0.7-1.1l-0.5-1.6l-0.1-2.2l1-0.4
				l0.6-1.2v-3.5l0-8.5l18,0.2V874.7L655.9,874.7z"/>
			<path id="Pike_5_" opacity="0.2" fill="#818080" stroke="#231F20" stroke-width="2.4971" stroke-miterlimit="10"
				  d="M594.3,823.9
				l-0.6,56.6l-35.7-0.3l0.1-2.8l-3,0l0.4-26.3l-0.4-0.1l-1.9-0.4l-0.7-0.5l-1.7-0.4l-2,0.4l-1,0.4l-1.3-0.1l-1.2-0.4l-1.1,0.3
				l-1.2-0.1l-0.8-0.2l-0.9,0.3l-0.3,0.2l0.2-11.4l-5.9-0.1l0.1-1.5V836l0-3.2l-3.1,0l0-2.8l0.1-7.3l0-3l0.3-0.2l2.7,0.1l1.5,0.9
				l0.6-0.3l0.1-1.7l1.1-0.5l0.5,0.6v1.5l1,0.7l0.9-0.1l0.1-2.2l0.5-0.5l0.7-0.2l1.1,0.5l1-0.1l0.7,0.3l0.6,1.2l-0.5,2.3l0.4,1
				l0.8,0.6l0.8,0.1l0.8-0.8l0.5-1.4l-0.1-0.5l-1-1.4l-0.3-1.2l0.7-1l1.2-0.2l1,0.4l3.1,2.9l3.8,1.9l0.8,1.7l2.1-0.3l2.2-1.6l3.2-1.4
				l-0.1-1.2l0.8-1.6l0.4-0.5h0.7l0.3-0.3l0.4-0.2l0.7,0.2l1.2,0.9l1.1,0.4l1-0.8l0.7-1.4l1.1-0.5l3.2,1l1.5,1.3l0.4,1.9l1.4-0.1
				l1.2,1l-0.4,1.4l0.7,0.9h0.9l1.5-0.5l0.2-0.4l-0.7-1.2l0.2-0.6l0.5-0.5l0.7,0.4l0.7,1l0.4,0.1l0.7-0.3v-1.6l0.7-0.5l1.1-0.2
				l1.2,0.8l0.7,0.9l0.5,1.4l1.8,0.4l-0.9,1v0.5l0.7,0.2l0.9-0.5H594.3L594.3,823.9z"/>
			<path id="Porter_5_" opacity="0.2" fill="#818080" stroke="#231F20" stroke-width="2.4971" stroke-miterlimit="10"
				  d="
				M621.1,183.1l0,0.4v2.9l0.1,17.7l-0.2,9.1l0.3,8.6l-0.2,17l-0.1,11.9l-0.1,2.7l0,2.9v1.5l0.1,10.5l0,6.3l-0.1,3.7l-0.7,1l-0.7,0.6
				l-2.4,0.7l-1.7,1h-1l-0.8-0.4l-1-1.2l-8.8-6.5l-2.3-1.9l-3.4-1.3l-5.5-2l-1.9-0.2l-4.4,1.9l-3.9,1.7l-1,0.5l-1,1.2l-3.1,3.5
				l-0.1-0.2v-4.9l0.1-1.5v-3l-0.1-3v-2.9l0-4l0.1-4.3v-2.9l0.2-17.7l0-21.4l0-6.8l0-2.3v-1.9l6.8-1.5l8.4-2.5l4.4-1.6l2.3-1.1
				l1.5-0.5l1.4-0.7l2.1-0.9l1.8-0.7l1.7-0.7l1.3-0.7l1.6-0.7l2-1.1l2.6-1.4l2.1-1.2l1.8-0.9l1.1-0.5L621.1,183.1L621.1,183.1z"/>
			<path id="Posey_4_" opacity="0.2" fill="#818080" stroke="#231F20" stroke-width="2.4971" stroke-miterlimit="10"
				  d="M450,878.5
				l28.8,1.3l-0.1,2.9v2.6l17.5,0.1l-0.1,6.7l-0.1,8.6l-1.3-0.1l-0.6,17.4l-0.5,17.1l-0.1,11.3l-0.3,0.2l-2.5,0.7l-0.3,0.1h-0.1
				l-2.5-0.1h-0.1l-2.9-0.2l-0.8,0.4l-0.2,0.1l-0.7,0.4l-0.8,0.5l-0.1,0.1l-1.3,1l-0.3,0.2l-1.5,0.6l-0.3,0l-1.1,0l-2.9-0.1l-0.2,0
				l-2.1-0.7l-0.4-0.1l-0.2-0.2l-1.1-1.3l-0.4-0.8l-0.4-0.8l-0.1-0.1l-0.7-0.7l-0.8-0.7l-0.2-0.3l-0.2-0.3l-0.5-1l-0.7-1.4l-0.2-0.3
				l-1.7-1.4l-1.5-0.5l-0.2,0l-0.7,0.1l-0.4,0.2l-0.8,0.5l-0.9,1l-1.2,1.4l-0.7,0.9l-0.8,1.1l-0.8,1.1l-0.7,0.9l-0.4,0.6l-0.1,0.4
				l-0.2,1.1l0,0.2l0.1,0.5l0.5,1.4l3.4,4.2l0.5,0.9l0.4,2l0.6,3l0,0.2l-0.5,1.9l-0.1,0.3l-3.7,2.3l-0.8,1.1l-0.8,1.4l-0.7,1.2
				l-0.1,0.1l-1.2,0.8l-0.2,0h-0.2l-0.5-0.1l-0.4-0.1l-0.2-0.2l-1.6-1.7l-0.8-0.8l-2-1.2l-0.5-0.3l-0.3-0.2l-1.2-1.1l-1.3-0.3
				l-1.1,0.2l-0.1,0.1l-1.1,0.5l-0.1-0.7l-0.1-0.4l-0.2-0.6l-0.1-0.3l-0.1-0.2l-0.4-0.3l-0.3-0.1l-0.2-0.1l-0.7,0l-0.1,0l-0.7,0.2
				l-0.4,0.2l-0.2,0.1l-0.5,0.3l-0.6,0.3l-0.7,0.2l-0.7-0.1l-0.8-0.4l-0.8-0.6l-0.1-0.3l-0.3-0.7l-0.4-1l0-0.1l-0.2-0.8l0-0.2V959
				l0.1-0.5l0.2-0.4l0.5-0.3l0.6-0.1l0.6,0.1l0.7,0.3l0.4,0.2l1,0.5l1,0.5l0.3,0.1l0.5,0.1l0.9,0.1l0.6-0.1l0.8-0.2l0.1,0l0.5-0.3
				l0.3-0.1l0.1-0.1l0.1-0.1l0.2-0.2l0.2-0.8v-0.6l-0.2-0.6l-0.4-0.5l-0.4-0.3l-0.4-0.3l-1.3-0.5l-1.4-0.7l-0.9-0.5l-1-0.8l-0.6-1.1
				l-0.4-0.8l-0.5-0.9l-0.3-0.6l-0.4-0.8l-0.3-0.7l-0.4-0.7l-0.2-0.3l-0.2-0.3l-0.4-0.5l-0.3-0.7l-0.2-0.6l0-0.6l0.1-0.3l0.1-0.2
				l0.2-0.4l0.4-0.2l0.1,0h0.3l0.5,0.2l0.5,0.3l0.7,0.5l0.5,0.4l0.5,0.4l0.9,0.7l0.5,0.1l0.8,0.1l1.1,0.1l0.7-0.1l0.1,0l0.3-0.1
				l0.5-0.1l0.1,0h0.2l0.5,0.1l0.2,0.1l0.3,0.2l0.3,0.2l0.5,0.3l0.4,0.1l0.1,0l0.4-0.1l0.2-0.1l0.1-0.1l0.3-0.5l0.1-0.5v-0.3l0-0.3
				l0-0.3l-0.1-0.5l-0.4-0.8l-0.4-0.5l-0.6-0.2l-0.9-0.2l-2.2-0.3l-0.1,0l-0.9-0.2h-1.4l-0.4-0.1l-0.5-0.1l-0.4-0.3l-0.3-0.3
				l-0.2-0.2l-0.1-0.1l-0.2-0.5l0-0.5l0.3-0.6l0.3-0.4l0.4-0.3l0.5-0.2h0.4l0.4,0.2l0.5,0.5l0.1,0.1l0.4,0.3l0.5,0.4l0.3,0.2l0.4,0
				l0.6-0.1l0.4-0.1l0.4-0.2l0.4-0.4l0.3-0.4l0-0.5l-0.1-0.6l-0.3-0.9l-0.1-0.9l-0.2-0.9l0-0.7v-0.2l0.1-0.3l0-0.1l0.1-0.2l0.4-0.3
				l0.4-0.2l0.5-0.1l0.4-0.2l0.5-0.3l0.5-0.3l0.4-0.4l0.3-0.4l0.1-0.4l0.1-0.4l0.1-0.6l-0.2-0.8l-0.1-0.4l-0.1-0.3l-0.4-1l-0.1-0.2
				l-0.9-1.7l-0.3-0.5l-0.1-0.5l0-0.3l-0.1-0.7l0.2-0.6l0.3-0.6l0.5-0.7l0.1-0.1l0.4-0.5l0.9-0.6l0.2-0.3l0.1-0.1l0-0.6l-0.3-0.4
				l-0.1-0.1l-0.2-0.1l-0.3-0.1h-0.2l-0.9,0.1l-0.6,0.1l-0.6,0l-0.7-0.1l-0.5-0.3l-0.5-0.5l-0.3-0.5l0-0.6l0.1-0.3l0.2-0.3l0.4-0.6
				l0.5-0.4l0.4-0.2l0.4-0.1l1-0.1l1.4,0.2l0.6,0.1l0.6,0l0.5-0.2l0.7-0.1l0.7-0.3l0.7-0.2l0.4-0.2l0.6-0.3l1.6-1l1-0.5l0.6-0.5
				l0.8-0.6l0.4-0.6l0.4-0.7l0.2-0.7l0-0.2l0.1-0.7l0-0.3l-0.1-0.2l-0.1-0.4l-0.1-0.3l-0.2-0.5l-0.1-0.2l-0.1-0.3V905l-0.3-0.3
				l-0.3-0.1l-0.4,0.1l-0.4,0.2l-0.5,0.3l-1.3,0.7l-2.3,1.2l-0.5,0.2l-0.5,0.2l-0.2,0.1l-0.7,0.3l-0.4,0.1l-0.3-0.1l-0.3-0.2
				l-0.1-0.1l-0.1-0.2l-0.2-0.4l-0.1-0.3l-0.1-0.3l-0.1-0.6l0.1-0.7l0.2-0.4l0.6-0.6l0.4-0.3l0.7-0.4l0.6-0.2l0.4,0h1.3l0.6,0l0.1,0
				l0.6-0.2l0.5-0.2l0.4-0.3l0.1-0.1l0.2-0.3l0.2-0.6l0.1-0.8l0.1-0.7l0.2-0.6l0.5-0.5l0.2-0.2l0.9-0.2l0.5-0.1l0.5,0.1l0.5,0.2
				l0.6,0.2l0.3,0l0.3-0.1l0.5-0.5l0.4-0.6l0.3-0.5l0.1-0.2l0.3-0.3l0.4-0.5l0.4-0.3l0.4-0.3l0.5-0.4l0.4-0.4l0.2-0.3l0.1-0.2
				l0.1-0.4l0.3-0.3l0.3-0.3l0.3-0.5v-0.5l-0.3-0.7l-0.1-0.4l-0.3-0.4l-0.3-0.2l-0.2,0l-0.2,0.1l-0.2,0.2l-0.2,0.2l-0.1,0.1l-0.1,0.2
				l-0.4,0.5l-0.4,0.4l-0.4,0.1l-0.2-0.1l-0.1-0.1l-0.1-0.3l-0.1-0.6l0-0.1l-0.2-0.6l-0.1-0.5l-0.2-0.6l-0.3-0.3l-0.3-0.3l-0.6-0.3
				l-0.4,0l-0.7-0.1l-0.3-0.1l-0.6-0.3l-0.9-0.7l-0.1-0.1l-0.5-0.7l-1.1-1.8l-0.1-0.1l-0.5-1.2l-0.2-0.9l-0.1-0.6l-0.1-0.4l0-0.5
				l0.1-1v-0.3l0-1l0.1-0.2L450,878.5L450,878.5z"/>
			<path id="Pulaski_5_" opacity="0.2" fill="#818080" stroke="#231F20" stroke-width="2.4971" stroke-miterlimit="10"
				  d="
				M690.8,291.9l-0.1,17.5l0.1,17.4l-0.1,17.7l-17.1-0.6h-1l-16.6-0.2h-0.5l-17.5-0.1l-17.6-0.2l-0.1-17l0.1-17.6l0.1-17.3l35.1,0.1
				l15,0.2l2.7,0h5.3l8.6,0.1l2.2,0.1H690.8L690.8,291.9z"/>
			<path id="Putnam_5_" opacity="0.2" fill="#818080" stroke="#231F20" stroke-width="2.4971" stroke-miterlimit="10"
				  d="
				M655.3,553.8l1.3-0.1l-0.1,17.5l-0.1,17.8l-0.1,11.7l3.2-0.1l3.9,0v2.1l-0.9,1.4l-0.9,0.8l-0.4,1.7l-0.1,0.7l0.1,2l0.3,4l0.5,2.3
				l-0.7,1.6l-2.7,2.7l-2.4,1.6v2.3l0,8.9l-34-0.8l-3.4-0.1h-2.1l-11.2-0.1l0.2-8.8l0.2-17.4l0.3-17.8l0.3-17.5l0.2-8.4l-0.1-9.3
				l14,0.3l3.3,0.2l14.1,0.4h2.1L655.3,553.8L655.3,553.8z"/>
			<path id="Randolph_5_" opacity="0.2" fill="#818080" stroke="#231F20" stroke-width="2.4971"
				  stroke-miterlimit="10" d="
				M945.3,462.7l0.2,27.3l-0.3,7.8l-0.1,1.7l0.1,24.2H938l-5.4,0.2l-47.2,1h-2.1l-0.3-14.5l-0.3-11.7l-0.2-17l-0.4-17.6l13.5-0.3
				l17.1-0.4l18.1-0.3L945.3,462.7L945.3,462.7z"/>
			<path id="Ripley_5_" opacity="0.2" fill="#818080" stroke="#231F20" stroke-width="2.4971" stroke-miterlimit="10"
				  d="
				M908.3,664.2l-1.1,8.2l-1.3,9.6l-1.1,8.2l-1.1,9.3l-1,8.5l-2.3,18.1l-1.2,6l-0.3,1.8l-0.4,2.7l-0.6,3.7l-10.1,0.2l0.1,2.5
				l-5.7,0.3l-17.5,0.4h-3.3l-2.3,0.1l-9.1,0.2l0-27.7l0-1.1l0.2-27.6l22.3-14.8l11.8-8l0.3-0.2L908.3,664.2L908.3,664.2z"/>
			<path id="Rush_5_" opacity="0.2" fill="#818080" stroke="#231F20" stroke-width="2.4971" stroke-miterlimit="10"
				  d="M870.4,568.3
				l1,52.6l0.3,14.6l-51.7,0.6l-0.9-49.3l0-17.6l5.6,0h3.2l17.2-0.7l17.5-0.3L870.4,568.3L870.4,568.3z"/>
			<path id="Saint_Joseph_5_" opacity="0.2" fill="#818080" stroke="#231F20" stroke-width="2.4971"
				  stroke-miterlimit="10" d="
				M727.4,173.6l24.5-0.1l0.5,52.6l0.1,1.3l0,2.9h-2.9l-2.9,0H740l-2.1,0l-11.7,0.1l-10.9,0.1l-3.6,0.2h-2.9l-4.4,0.1l-8.7,0.2h-3.1
				l-1.3,0H691v3l0,5.5l-8.7,0l0.1-17.3l3.5-0.1l0.2-1.6l0.3-0.5l0-7.2l1.8-2L688,196l-3-0.2l-3,0v-1.5l0.1-3.2l0.1-7.1l0.2-10.4
				l10.7,0.1l25.2-0.2L727.4,173.6L727.4,173.6z"/>
			<path id="Scott_5_" opacity="0.2" fill="#818080" stroke="#231F20" stroke-width="2.4971" stroke-miterlimit="10"
				  d="M812.5,764
				l0.1,15.3l3.1-0.1l0.1,1.7h2.8l0.1,4.5h2.6l2.3,0h0.9l0.2,5.8h5.9l0.1,5.5l0.1,9l-35.2,0.6l0.1,2.9l-1.5-0.1v1.6h-1.5v1.4h-1.5
				l0.1,2.5h-4.2l-0.2-2.6l-5.7,0.1l-0.7-31.7h0.6l0.5,0.6l0.6,0.4l0.7,0.2l0.5-0.1l0.2-0.2l0.5-0.2l0.3,0.3l0.8-0.5l0.4,0.4l1-1.3
				l0.6,0.4v-0.7l0.9-0.2l-0.2-1.2l0.5-0.5l0.5-0.2l0.2-0.8l0.4,0.3l0.3-0.2l0.2-2.2l1-1.4l0.3-0.1l-0.1-0.4l0.5-0.9l0.9-0.2l0.3-0.5
				l0.2,0.5l1-0.5l-0.5-1.8l0.4-0.6l0.8-1.9l-0.2-0.3l0.9-1l1.9,0.1l0.5-1l0.5-0.2l0.8,0.7l0.5-0.4v-0.7l0.8-0.2l0.3,0.5l0.7-0.5
				l-0.2-0.7l0.7-0.3l0.5,0.3l1.3,0.1l0.7-0.2l0.3-0.5l0.8-0.5l0.6,0l1.2,0.3l0.2-0.1l-0.3-0.5l0.7-0.6l0.5,0l1,0.8l0.1,1.1l0.4,0.6
				l0.9,0.4l0.5-0.6l0.5,0.4L812.5,764L812.5,764z"/>
			<path id="Shelby_5_" opacity="0.2" fill="#818080" stroke="#231F20" stroke-width="2.4971" stroke-miterlimit="10"
				  d="
				M819.2,586.8l0.9,49.3l0.1,0.5l0.1,19.8l-8.5,0.3l-17.9,0.1l-17.8,0.8l-5.9,0.1l-0.2-58.3l0-11.8l6-0.2l17.6-0.4l17.3,0
				L819.2,586.8L819.2,586.8z"/>
			<path id="Spencer_5_" opacity="0.2" fill="#818080" stroke="#231F20" stroke-width="2.4971" stroke-miterlimit="10"
				  d="
				M637.9,885.9v3.5l-0.6,1.2l-1,0.4l0.1,2.2l0.5,1.6l0.7,1.1l-0.6,0.9l-0.4,0.5l-0.4,0.5l-0.2,0.3l-0.4,0.5l0.2,0.3l0.8,0.5l0.5,1.8
				l0.4,1.1l0.4,1.6l0.6,2.3l0.6,0.3l0.6,0.5l0.4-0.1l0.3-0.5l0.7-0.3l0.5,0.8v3l-0.5,0.5l-1.3,1.1l0.4,0.5l0.5,1.1l0.5,1.4l1,1
				l-1.4,0.8l-0.9,0.2l-0.4,1l0.3,0.5l0.2,0.5l-0.1,0.7v0.8l0.5,0.9l0.3,1.5l0.2,2.8l0.4,2.1l-0.2,0.4h-0.5l-1.5-0.4l-1.1-1.2
				l-1.4-0.7l-0.4,0.6l-0.9,1l-1.8,0.5l-0.7,0.2l-0.9,0.4l-0.9,0.5l-1.2,0.5l-0.8,0.3l-1.7,0.8l-3.5,3.4l-1.5,1.9l-1.6,2l-1.8,1.5
				l-0.1,0l-3.6,1.1l-1.4,0.1l-1.8,0.1l-1,0.1l-0.7,0.1l-1.9,0.5l-1.1,0.3l-1.6,0.8l-1.7,0.9L602,944l-1.5,1l-1.3,1.2l-1,1l-0.3,0.4
				l-0.3,0.6l-0.3,0.9l0.3,1.8l0.2,1.4l-0.2,1.3l-0.4,1.6l-1.5,6.2l-0.3,0.7l-1.4,3.4l-0.8,1.4l-2,1.9l-0.9,0.5l-1.3,0.7l-1.4,0.4
				l-0.1,0l-2.7-0.1l-0.7-0.3L584,970l-0.7-0.4l-0.1-0.1l-0.8-1.7l-0.8-3.3l-0.2-0.6l-0.8-1.8l-2.5-2.8l-1.2-0.4l-0.4-0.1l-0.8-0.1
				l-3.3-0.4l-3.3-1.1l-0.3-0.1l-1.1-0.7l-0.3-0.2l-1.2-0.8l-0.9-0.7l-1.4-1.2l-1.4-1.2l-0.5-0.5l0.2-10.1l2.9-3.5l0.6-0.4l0.9-1.4
				l0.4,0.5l0.7-0.1l0.4-0.3l0.3-1l0.2-1.1l-0.3-0.5l1-1.4l0.4,0.1l1.5-1.1l2.8-2.2l0.5-0.8l0.9-0.7l0.5-1.3l1.3-0.8l0.4-0.5l0.6-0.7
				v-1.1l2,0.3l0.7-0.5l0.1-0.9l-0.3-0.4l-1.9-0.5v-0.5l0.5-0.4l0.6-0.2l0.4,0.7l0.5-0.5l0.1-0.7l-0.4-0.3l-0.1-0.6l0.9-1.2l-0.4-1.7
				l0.9-0.9l2.3,0.8l0.3,1.1l0.7,0.5l0.3,0.7l1.7-0.6l2,0.1l1.1-0.3l0.4-0.2h0.6l0.1-0.7l-0.5-0.5l-0.5-0.1l-0.6-0.2l0.1-0.8l0.7-1.5
				V912l0.3-1l0.3-0.8l0.2-0.2l0.5-0.8l0.6-0.2l0.5-0.7l0.7-0.5l0.1-0.3l0.1-0.7l-0.4-0.2v-0.5l0.7-0.5l-0.1-1.9v-0.3l-0.1-0.8l9,0.2
				l0.1-17l17.7,0L637.9,885.9L637.9,885.9z"/>
			<path id="Starke_5_" opacity="0.2" fill="#818080" stroke="#231F20" stroke-width="2.4971" stroke-miterlimit="10"
				  d="M691,239.2
				v3.1l0.1,8.7l0,2.1v5.7L691,273l-0.1,9.2v2.5l0,7.2h-1.4l-2.2-0.1l-8.6-0.1h-5.3l-2.7,0l-15-0.2l-35.1-0.1l0.2-11.6l0-1.4l0.3-0.2
				l1.1-1.4l0.7-0.1l2.8-1.9l0.9-0.3l2.1-0.7l1.1-0.9l3.6-0.5l1-0.9l2,0.2l0.4-0.2l1.5-0.3l4.5-2.3l1.2-1.6l2.1-2.8l2.5-1.9l1-1.1
				l0.2-1.4l0.4-1.8l0.6-0.7l0.6-0.9l0.6-1.1l0.1-1.7l1.9-2.9l0.6-1.1l0.3-1.8l0.7-2.2l0.6-0.7l2.6-1.6l1.7-0.4l4.4-4l9,0.1l8.7-0.1
				L691,239.2L691,239.2z"/>
			<path id="Steuben_5_" opacity="0.2" fill="#818080" stroke="#231F20" stroke-width="2.4971" stroke-miterlimit="10"
				  d="
				M881.7,172.8l49.6-0.8l6-0.1l3,0l0.3,13l0.5,27.3l0.1,5.9l-7.4,0.2l-17.1,0.5l-34,0.7l-0.3-17.2l-0.3-17.7L881.7,172.8
				L881.7,172.8z"/>
			<path id="Sullivan_5_" opacity="0.2" fill="#818080" stroke="#231F20" stroke-width="2.4971"
				  stroke-miterlimit="10" d="
				M569.8,674.1l-0.2,17.6l-0.1,17.5L569,727l-0.6,17.4v1.1l-17.9,0l-19.5-0.4l-5.7-0.2v-0.5l-0.2-0.3l-0.4-0.2l-0.4-0.1l-0.3-0.2
				l-0.1-0.1l-0.1-0.4v-0.5l0.1-0.4l0.2-0.3l0.3-0.5l0.2-0.2l0.2-0.1l0.4-0.4l0.2-0.6l0.1-0.5v-0.9l-0.3-0.7l-0.3-0.4l-0.1-0.3v-0.2
				l0.1-0.5l0.2-0.4l0.1-0.2l0.1-0.2l0.3-0.3l0.3-0.4l0.2-0.4l0-0.2l-0.2-0.2l-0.3-0.4l-0.6-0.6l-0.3-0.3l-0.1-0.1l-0.2-0.3l-0.4-0.4
				l-0.2-0.5l-0.2-0.4l-0.4-0.5l-0.5-0.5l-0.2-0.2l-0.2-0.1l-1-0.4l-1.3-0.6l-1.2-0.4l-1.4-0.6l-0.6-0.3l-0.4-0.3l-0.3-0.1l-0.1-0.2
				l0-0.2l0-0.2l0.2-0.1l0.1-0.1l0.3,0l0.4,0.1l0.5,0.1l0.3,0l0.3-0.3l0.1-0.3v-0.2l-0.2-0.3l-0.1-0.1l-0.5-0.3l-0.5-0.2l-0.3-0.2
				l-0.1-0.1l-0.2-0.3l0-0.5l0.3-0.5l0.4-1l0.4-0.7l0.3-0.6l0.1-0.1l0.2-0.6l0-0.5l-0.2-0.8l-0.5-0.9l-0.4-0.7l-0.3-0.5l-0.2-0.3
				l-0.1-0.4V717l0.3-0.6l0.2-0.5l0.3-0.5l0.1-0.3l0.1-0.3l0.1-0.5l-0.1-0.5l-0.2-0.4l-0.5-0.5l-0.5-0.8l-0.3-0.3l-0.1-0.1l-0.4-0.6
				l-0.4-0.5l-0.5-0.5l-0.6-0.7l-0.5-0.4l-0.5-0.2l-0.3-0.1h-0.3l-0.3,0l-0.7,0.1l-0.7-0.3l-0.5-0.4l-0.1-0.1l-0.1-0.4l-0.1-0.3V707
				l0.1-0.2l0.1-0.2l0.2-0.4l0.3-0.3l0.4-0.4l0.2-0.5l0-0.4l-0.2-0.2l-0.3-0.2l-0.1,0h-0.3l-0.3-0.1h-1.4l-1.4,0h-0.3l-0.3-0.1
				l-0.5,0l-0.3-0.1l-0.3-0.1l-0.4-0.3l-0.2-0.5l0-0.5l0.1-0.5l0.2-0.2l0.4-0.1l0.3-0.1l0.5,0.1l0.4,0.1h0.2l0.3,0h0.4l0.3-0.1
				l0.2-0.1l0-0.1v-0.2l-0.1-0.3l-0.2-0.1l-0.1-0.1l-0.1,0l-0.3-0.1l-0.1,0l-0.2-0.1l-0.3-0.2l-0.1-0.2V700l-0.1-0.4l-0.2-0.3
				l-0.3-0.3l-0.6-0.2l-0.3-0.1l-0.1,0l-0.4-0.1l-0.2-0.3l0-0.2l0-0.1l0.1-0.7l0.1-0.4l0.3-0.4l0.2-0.5l0.1-0.2l0.2-0.5l0.2-0.3
				l0.3-0.4l0.3-0.3l0.4-0.3l0.1,0h0.5l0.2,0l0.2,0l0.1,0l0.1,0l0.3,0.1l0.4,0.2h0.3l0.3-0.1l0.2-0.2V694l-0.2-0.2l-0.5-0.4l-0.2-0.1
				l-0.3-0.1l-0.5-0.1l-0.4-0.1l-0.2-0.2v-0.3l0.1-0.2l0.4-0.5l0.7-0.5l1-0.5l0.4-0.1l0.4-0.3l0.1-0.1l0.1-0.2l0.1-0.5v-1.1l0.2-0.5
				l0.2-0.3l0.3-0.1l0.3,0.1l0.5,0.1h0.5l0.3-0.1l0.2-0.2l0-0.1l0.1-0.2l0.2-0.3l0.3-0.4l0.2-0.3l0.1-0.1l0.4-0.1l0.5-0.2l0.4-0.2
				l0.4-0.4l0.2-0.3l0.2-0.5l0.2-0.5l0.3-0.5l0.4-0.3l0.2-0.2l0.3-0.3l0.1-0.3l0.2-0.5l0.1-0.5l0.1-0.5l0-0.4v-1.2l-0.2-1.7v-0.6
				l-0.2-0.6l0.1-0.3l0.1-0.3l0.2-0.3l0.2-0.2l0.1-0.2l0.2-0.2v-0.2l0-0.4l-0.3-0.4l-0.3-0.2h-0.7l-0.1,0.1l-0.5,0.4l-0.2,0.4
				l-0.3,0.4l-0.3,0.2l-0.2,0.1l-0.4,0.1l-0.2-0.1l-0.1-0.2l-0.1-0.2l-0.6-1.1l-0.3-0.6l-0.1-0.2l-0.1-0.2l4.5,0.1l17.8,0.3l17,0.2
				L569.8,674.1L569.8,674.1z"/>
			<path id="Switzerland_5_" opacity="0.2" fill="#818080" stroke="#231F20" stroke-width="2.4971"
				  stroke-miterlimit="10" d="
				M897.8,740.2l-0.7,5.3l44.4-0.3l0.7,0.1l5.4,0.2l3.6,1.4l0.3,0.1l0.7,0.5l0.3,0.6l0.1,0.1l0.3,0.6l-0.1,3.1l-0.7,1.6l-0.1,0.1
				l-2,1.5l-1.1,0.8l-0.3,0.2l-1.6,2.2l-0.3,0.5l-0.3,0.8l0,0.1l0,0.2l0.3,1.2l2.4,4.1l0.1,1.8l-0.4,0.9l-0.9,0.5l-0.2,0.1l-0.2,0
				h-0.8l-0.4,0l-0.5-0.1l-1.6-0.5l-0.2-0.1l-1.9-0.6l-1.3-0.2l-2.7-0.3l-2.1,0.3l-0.2,0.1l-0.7,0.4l-0.8,0.3l-1.5,0.7l-2.6,1.2
				l-0.3,0.1l-0.4,0.1l-1.9,0.3l-2.5-0.3l-1.5-0.2l-2.6,0.3l-2.2,1.2l-0.6,0.4l-1.4,1.1l-0.7,0.5l-0.1-0.1l-4.2,2.9l-0.3,0.1
				l-0.4,0.2l-0.9,0.4l-1.5,0.7l-0.2,0.1l-4,2.9l-0.2,0.2l-2.3,2.1l-2.2,2l-0.5,0.5l-2.1,1.5l-1.1,0.5l-1.2,0.5l-0.5,0.2l-1.2,0.3
				l-0.5,0.1l-0.5,0l-2.9-0.1l-1-0.3v-0.2l-0.7-45.2l-0.1-2.5L897.8,740.2L897.8,740.2z"/>
			<path id="Tippecanoe_5_" opacity="0.2" fill="#818080" stroke="#231F20" stroke-width="2.4971"
				  stroke-miterlimit="10" d="
				M643.9,413.7l11.6,0l0,17.6l0,8.6l0.1,8.8l-0.1,17.4l-0.2,17.5l-17.5-0.1l-17.3-0.4l-17.4-0.2l-8.7-0.2l0.3-29.9l0-22l-0.1-17.6
				l8.7,0.1l17.4,0.2l17.5,0.1L643.9,413.7L643.9,413.7z"/>
			<path id="Tipton_5_" opacity="0.2" fill="#818080" stroke="#231F20" stroke-width="2.4971" stroke-miterlimit="10"
				  d="M783.1,445
				l0.1,5.7l0.2,31.7l-6.1,0.2l-17.2,0.2l-17.7,0.2l-17.7,0.5l0.2-17.3l-0.1-14.4l-0.1-3l0.1-2.9L783.1,445L783.1,445z"/>
			<path id="Union_5_" opacity="0.2" fill="#818080" stroke="#231F20" stroke-width="2.4971" stroke-miterlimit="10"
				  d="M945.9,579.7
				l0.5,31.9l0.1,7.6l0,1.6l-27.8,0h-2.6l-2,0l0.1-0.6l-2.1,0.1l-0.2-37.5l-0.1-2.9l10-0.2l-0.1,0.5L945.9,579.7L945.9,579.7z"/>
			<path id="Vanderburgh_4_" opacity="0.2" fill="#818080" stroke="#231F20" stroke-width="2.4971"
				  stroke-miterlimit="10" d="
				M531.1,893.2l-0.1,8.3h-0.6l-0.5,17.4l3.6,0l-0.4,19.6l-0.4,0.2l-1.8,1.1l-1.2,0.8l-0.3,0.2l-1.6,1.4l-1.4,1.2l-1.2,1l-0.2,0.1
				l-1.6,0.5h-0.2l-0.1-0.1l-1.6-1.1l-1.3-0.9l-3.7-2.2l-1.3-1.1l-0.8-1.2l-1.1-2.9l-0.9-2.4l-1.5-1.4l-0.7-0.1l-1.1,0.5l0,0.1
				l-0.3,1.5l-0.5,2.5l-0.1,0.1l-0.2,0.3l-0.8,0.9l-1.9,2.1l-0.2,0.3l-0.1,0.1l-0.3,1.5l0.6,2l0.1,0.1l0.9,1.4l2.1,1.5l1.2,1.3
				l0.4,0.5l0.4,0.9l0.3,0.7l0.1,0.2l0,2.8v0.1l-0.5,1.4l-0.2,0.3l-2.1,3.5l-0.7,0.8l-0.2,0.2l-1.7,1l-2.8,0.9h-2.3l-1.9-0.3
				l-0.2-0.1l-2.1-1.4l-0.7-2.5l0.2-2.2l0.5-1.6l0.8-1.3l1.2-2l0.1-1l-0.2-1.3l-0.3-0.6l-0.3-0.5l-1.1-0.7l-0.8-0.2l-0.9,0.3
				l-1.6,0.8l0.1-11.3l0.5-17.1l0.6-17.4l1.3,0.1l0.1-8.6L531.1,893.2L531.1,893.2z"/>
			<path id="Vermillion_5_" opacity="0.2" fill="#818080" stroke="#231F20" stroke-width="2.4971"
				  stroke-miterlimit="10" d="
				M545.8,499.5l-0.1,0.6l-0.1,3.7l-1,2.4l0.2,2.6l-0.7,2.8l0,1.5l-0.7,1.6l-1.7,1.3l1.1,1.6l-1.1,1.3l-0.7,1.8l0.3,6.3l0.8,1.4v1.1
				l-0.5,1.9l-1.6,1.9l0.4,0.7l1.1,0.7l1.3-0.4l0.2,0.5l0.2,0.4l-0.5,1.7l-1.9,1.8l0.2,0.7l2,1.1l1.3-0.6l0.8,0.1l0.4,0.7l-1.4,1.2
				l0.5,1.1l2.8,1.4l1.1,0.1l0.9,0.7l0.8,1.2l0.7,2.3L551,549l-1.7,1.2l0,0.4l1.4,1.6l2.2,0.7l0.3,0.5l-0.4,0.7l-0.7,0.4l-0.1,1
				l-0.7,1.7l-0.8,1l-1.6,0.2l-0.2,5.3l1.2,3.6v0.8l0.1,1.2v0.7l-0.1,0.4l-0.4,1.2l-0.3,1l0.2,4.8l-1.2,4.9l0.7,2.2l-0.9,1.3l0.6,1.6
				L547,591l0.3,0.5l0.2,1l-0.2,0.7l-0.8,0.8l-0.2,1.5l0.6,1.6l-0.2,1.6l0.5,1.4l0.5,0.6l0.8,1.9l-0.2,1.3l-12.2-0.2l-10.9,0
				l0.3-19.4l0.3-28.5l0-2.8l0-4.1l0.3-21.4l0.4-28.5l0.1-3.9l6.6,0l-0.2,4L545.8,499.5L545.8,499.5z"/>
			<path id="Vigo_5_" opacity="0.2" fill="#818080" stroke="#231F20" stroke-width="2.4971" stroke-miterlimit="10"
				  d="M548.2,604
				l5.1,0.1l17.6,0.2l5.7,0.2l-0.3,17.6l-5.6-0.1l-0.2,17.5l-0.3,17.1l-0.3,17.5l-17.2-0.1l-17-0.2l-17.8-0.3l-4.5-0.1L513,673
				l-0.1-0.2l0-0.6l0-0.5l0.2-0.6l0.1-0.4l-0.1-0.5l-0.2-0.3l-0.2-0.3l-0.1-0.2l-0.1-0.6l-0.1-0.3l0-0.5l0.3-0.5l0.3-0.5l0.4-0.5
				l0.3-0.4l0.1-0.5l-0.1-0.4l0-0.1l-0.1-0.3l-0.4-0.3l-0.4-0.1l-0.6,0.1l-0.5,0.1h-0.5l-0.2,0l-0.2-0.1l-0.2-0.3l0-0.4l0.2-0.2
				l0.3-0.1l0.1,0l0.5-0.1l0.5-0.2l0.3-0.3l0.4-0.5l0.7-1.2l0.7-1l0.1-0.3l0.2-0.5l0.4-0.6l0.4-0.5l0.4-0.5l0.4-0.3l0.1-0.1l0.3-0.1
				l0.6-0.3l0.7-0.1l0.9,0.1l0.3,0l0.8,0.1h0.1l0.4-0.1l0.3-0.1l0.5-0.2l0.3-0.3l0.3-0.5l0.2-0.4l0.1-0.3l0.1-0.3l0.1-0.1l0.1-0.1
				l0.4-0.2l0.1,0h0.1l0.2,0.1l0.3,0.2l0.3,0.3l0.4,0.2l0.3-0.2l0.1-13.3l0.1-4.2l0.1-7.6l0.2-17l0.1-7.5v-2l10.9,0L548.2,604
				L548.2,604z"/>
			<path id="Wabash_5_" opacity="0.2" fill="#818080" stroke="#231F20" stroke-width="2.4971" stroke-miterlimit="10"
				  d="
				M809.5,316.6l0.3,9l6,0l0.8,43.3l0.1,3.3l0.4,23l-5.5,0.1l-17.2,0.3l-11.8,0.1l-5.5,0.1l-6,0l-0.2-9.6l-0.1-3.4l-1.1-56v-0.4
				l0.1-8.6L809.5,316.6L809.5,316.6z"/>
			<path id="Warren_5_" opacity="0.2" fill="#818080" stroke="#231F20" stroke-width="2.4971" stroke-miterlimit="10"
				  d="
				M594.6,430.7l0,22h-0.8l-1.1,1.3l-0.3,1.1l-2.8,1.7l-1.1,1.1l-3.3,1.1l-0.8-0.3l-0.9,0.4l-1-0.1l-1.5,1.2l-1.7,0.7l-2.5,0.6
				l-3.6,2.1l-2.1,0.3l-0.5,0.7l-0.2,1.4l-0.8,0.7l-1.6,1.4l-1.5,0.7l-1.1,1.2l-2.1,4.4l-1.8,0.6l-1.2,0.8l-0.7,1.6l-1.6,1l-0.7,1.6
				l-0.7,0.7l-1.1,0.4l-0.5,1l-0.8,0.1l-0.8,0.5l-5.3,2.1l-1.8,1.4L544,487l-0.9,2.2l-1.8,2.3l-0.4,1.2l1.2,1.9l3.7,2.2l0.1,0.7
				l0.2,1.1l-0.3,1l-12.9-0.3l0.2-4l-6.6,0l0.7-24.7l0.8-28.2l0.3-13l5.7,0.2l17.3,0.2l17.3,0.2l17.5,0.5L594.6,430.7L594.6,430.7z"
				/>
			<path id="Warrick_5_" opacity="0.2" fill="#818080" stroke="#231F20" stroke-width="2.4971" stroke-miterlimit="10"
				  d="
				M593.7,880.5l0,5.2l8.9,0.1l-0.1,17l-9-0.2l0.1,0.8v0.3l0.1,1.9l-0.7,0.5v0.5l0.4,0.2l-0.1,0.7l-0.1,0.3l-0.7,0.5l-0.5,0.7
				l-0.6,0.2l-0.5,0.8l-0.2,0.2l-0.3,0.8l-0.3,1v1.3l-0.7,1.5l-0.1,0.8l0.6,0.2l0.5,0.1l0.5,0.5l-0.1,0.7h-0.6l-0.4,0.2l-1.1,0.3
				l-2-0.1l-1.7,0.6l-0.3-0.7l-0.7-0.5l-0.3-1.1l-2.3-0.8l-0.9,0.9l0.4,1.7l-0.9,1.2l0.1,0.6l0.4,0.3l-0.1,0.7L580,921l-0.4-0.7
				l-0.6,0.2l-0.5,0.4v0.5l1.9,0.5l0.3,0.4l-0.1,0.9l-0.7,0.5l-2-0.3v1.1l-0.6,0.7l-0.4,0.5l-1.3,0.8l-0.5,1.3l-0.9,0.7l-0.5,0.8
				l-2.8,2.2l-1.5,1.1l-0.4-0.1l-1,1.4l0.3,0.5l-0.2,1.1l-0.3,1l-0.4,0.3l-0.7,0.1l-0.4-0.5l-0.9,1.4l-0.6,0.4l-2.9,3.5l-0.2,10.1
				l-1.3-1.2l-1.8-1.5l-1.9-1.4l-0.4-0.2l-0.5-0.3l-2.3-1.4l-1.7-1l-1-0.3l-0.9-0.3l-3.7-2.7l-1.4-1l-1.3-0.8l-0.9-0.5l-0.7-0.3
				l-3.5-1l-0.4,0l-2.1-0.1l-2.2,0.5l-0.8,0.4l0.4-19.6l-3.6,0l0.5-17.4h0.6l0.1-8.3l0.3-7.6l17.5,0l6.1,0l0.1-5.3l0-2.9l3,0
				l-0.1,2.8L593.7,880.5L593.7,880.5z"/>
			<path id="Washington_5_" opacity="0.2" fill="#818080" stroke="#231F20" stroke-width="2.4971"
				  stroke-miterlimit="10" d="M719.9,774.5l0.7-0.4l1.2,0.1l0.1-0.8l1-0.5l0.3,0.8h0.8l1,0.5l0.9-0.5l0.2-0.4l1.6-1.8l0.7,0.2l0.1,1l0.4,0.3l0.6-0.2v-1.1
				l0.3-0.4l0.7,0.2l0.5-0.3l0.3-0.5l0.9,0.2l0.1,0.7l0.4,0.2l1,0.1l0.2-0.3V771l0.6-0.2l0.5,0.3l0.3,1l0.7,0.6l1,0.1l0.5-0.5
				l1.5,1.1l2,0.7l1.2,0.7l1.6-0.3l1.3-0.6h1.6l0.5,0.4l0.7-0.6l-0.3-1.1l0.3-1.1l0.3-0.5l0.8-0.4l2,0.7l1.1,1.2l0.7-0.7l1-0.2
				l1.9,1.6l0.9,1.6l0.5,0.2l1.4,0h0.8l0.7-1.2h0.4l0.7,0.3l-0.4,0.9l0.2,0.6l0.3,0.3h0.8l0.8-0.9l0.7,0.2l1.2-1.4l1.1,0.5v1.5
				l0.7-0.3l0.2,1.2l0.5,0.2l1.3-0.5l0.2-1l0.9-0.8l0.5,0.5l1.3,0.1l-0.4,0.5l0.3,1l0.7-0.1l0.2-0.4l-0.1-0.5l1.4-0.8l-0.1,1l0.4,0.5
				l1.3-0.3l-0.3,0.9l1.5,0.4v-0.7l0.5-0.2l0.9,0.3l0.3,0.5l0.5-0.5l0.4,0.3l0.5-0.5l0.7,0.7l-0.4,0.5l0.3,0.7l-0.6,0.1v0.3l0.7,0.7
				l0.7,0.5l0.5,0.4l0.7,31.7l5.7-0.1l0.2,2.6l0.1,3.2l-3.1,0.1l0.1,5.8l-2.9-0.1v3.1l-11.2,0.2v2.7l-5.9,0.1l-0.1,14.1l-5.9,0.2
				l-35-0.9l-8.6,0l0.1-53.1l-0.3-9.1l1.3-0.5l0.5,0.3l1.4-0.3l0-1.8l0.4-0.6l0.1-1.2l0.8-1.4l0.4-0.6L719.9,774.5L719.9,774.5z"/>
			<path id="Wayne_5_" opacity="0.2" fill="#818080" stroke="#231F20" stroke-width="2.4971" stroke-miterlimit="10"
				  d="M945.3,523.7
				l0.1,11.2l0.1,6.7l0.5,38.1l-24.2,0.3l0.1-0.5l-10,0.2l0.1,2.9l-23.3,0.2l0-14.8h-5.8l-0.1-17.1l1.1-0.1h1.9l-0.3-25.9l47.2-1
				l5.4-0.2H945.3L945.3,523.7z"/>
			<path id="Wells_5_" opacity="0.2" fill="#818080" stroke="#231F20" stroke-width="2.4971" stroke-miterlimit="10"
				  d="M902.6,341.4
				l1.7,70l-5.7,0.2l-14.4,0.3l-3.1,0.1l-17.1,0.3l-17.2,0.3l-0.5-17.5l17.3-0.3l-0.1-17.6l-0.3-17.6l-0.2-17.5l17.2-0.3l17.2-0.3
				L902.6,341.4L902.6,341.4z"/>
			<path id="White_5_" opacity="0.2" fill="#818080" stroke="#231F20" stroke-width="2.4971" stroke-miterlimit="10"
				  d="M673.6,343.8
				l-0.1,17.6l-0.3,17.7l-17.4-0.4l-8.7-0.1v0.8l-0.8,1.7l1.2,1.1l-0.7,1.2l-0.4,0.8l-0.3,1.6l0.5,1.2l0.8,1.3l-0.5,0.5l-0.9,0.9
				l0.3,0.5l1.7-0.1l0.1,0.4l-1.2,1.1l-0.4,1.5H644l-0.1,20.6l-5.9,0l-17.5-0.1l-17.4-0.2l-8.7-0.1l-0.2-35l0.1-20.4l8.9-0.1l8.2,0
				l0-14.6l8.9,0l17.6,0.2l17.5,0.1h0.5l16.6,0.2H673.6L673.6,343.8z"/>
			<path id="Whitley_5_" opacity="0.2" fill="#818080" stroke="#231F20" stroke-width="2.4971" stroke-miterlimit="10"
				  d="
				M866.1,272.3l-0.1,17.3l-4.4,0.2l0.4,17.6l0.7,16.8l-17.7,0.3l-17.3,0.5v0.5l-11.9,0.1l-6,0l-0.3-9l-0.2-8.6l-0.4-17.9l5.4,0
				l-0.1-17.7l-0.2-5.7l17.3-0.1l0,5.7l17.3,0L866.1,272.3L866.1,272.3L866.1,272.3z"/>
		</g>
	</g>
	<g id="cities">
		<g id="south_bend_x2F__elkhart">
			<g class="heading">
				<g>
					<text x="960" y="160">South Bend/Elkhart</text>
				</g>
			</g>
			<g class="coverage">
				<g>
					<circle opacity="0.7" fill="#245A8F" cx="723.2" cy="198.5" r="142"/>
					<text class="tv" x="961" y="182">WNIT - TV</text>

					<line opacity="0.7" fill="none" stroke="#245A8F" stroke-width="3" stroke-miterlimit="10"
						  x1="861.3" y1="176.5" x2="951.3" y2="176.5"/>
				</g>
				<g>
					<circle opacity="0.3" fill="#ED2224" cx="741.4" cy="197.6" r="100"/>
					<text class="fm" x="961" y="204">WVPE - TV</text>

					<line opacity="0.3" fill="none" stroke="#ED2224" stroke-width="3" stroke-miterlimit="10"
						  x1="841.3" y1="197.5" x2="951.3" y2="197.5"/>
				</g>
			</g>
			<g class="label">
				<g>
					<text x="613.2" y="183.4">South Bend/Elkhart</text>
				</g>
				<circle fill="#989898" cx="718.7" cy="199.3" r="5.5"/>
				<circle opacity="0.7" fill="#245A8F" cx="723.2" cy="198.5" r="5"/>
				<circle opacity="0.3" fill="#ED2224" cx="741.4" cy="197.6" r="5"/>
				<rect x="629" y="169.9" opacity="1.000000e-02" fill="#FFFFFF" width="213" height="40.7"
					  onclick="animateClickedCity('south_bend_x2F__elkhart')"/>
			</g>
		</g>
		<g id="fort_wayne">
			<g class="heading">
				<g>
					<text x="1050" y="222">Fort Wayne</text>
				</g>
			</g>
			<g class="coverage">
				<g>

					<line opacity="0.7" fill="none" stroke="#245A8F" stroke-width="3" stroke-miterlimit="10"
						  x1="991.3" y1="241.5" x2="1044.3" y2="241.5"/>
					<text class="tv" x="1050" y="248">WFWA - TV</text>
					<circle opacity="0.7" fill="#245A8F" cx="890.8" cy="306" r="122.5"/>
				</g>
				<g>

					<line opacity="0.3" fill="none" stroke="#ED2224" stroke-width="3" stroke-miterlimit="10"
						  x1="883.3" y1="261.5" x2="1044.3" y2="261.5"/>
					<text class="fm" x="1050" y="269">WCKZ - FM</text>
					<circle opacity="0.3" fill="#ED2224" cx="852.8" cy="211" r="60.3"/>
				</g>
				<g>
					<circle opacity="0.3" fill="#ED2224" cx="899.4" cy="307.6" r="100"/>

					<line opacity="0.3" fill="none" stroke="#ED2224" stroke-width="3" stroke-miterlimit="10"
						  x1="994.3" y1="283.5" x2="1044.3" y2="283.5"/>
					<text class="fm" x="1050" y="292">WBOI - FM</text>
				</g>
				<g>

					<line opacity="0.3" fill="none" stroke="#ED2224" stroke-width="3" stroke-miterlimit="10"
						  x1="891.3" y1="308.5" x2="1044.3" y2="308.5"/>
					<text class="fm" x="1050" y="314">W204BF - FM</text>
					<circle opacity="0.3" fill="#ED2224" cx="877.4" cy="323.6" r="22.7"/>
				</g>
				<g>
					<line opacity="0.3" fill="none" stroke="#ED2224" stroke-width="3" stroke-miterlimit="10"
						  x1="927.3" y1="329.5" x2="1044.3" y2="329.5"/>
					<text class="fm" x="1050" y="337">WBNI - FM</text>
					<circle opacity="0.3" fill="#ED2224" cx="881.4" cy="332.1" r="46.5"/>
				</g>
			</g>
			<g class="label">
				<g>
					<text x="849.2" y="293.4">Fort Wayne</text>
					<path fill="#515350" d="M859.4,286.h8.2v2.5h-5.2v2.6h4.4v2.5h-4.4v3h5.4v2.5h-8.4V286.4z"/>
				</g>
				<circle fill="#989898" cx="909.3" cy="311.4" r="5.5"/>
				<circle opacity="0.7" fill="#245A8F" cx="890.8" cy="306" r="5"/>
				<circle opacity="0.3" fill="#ED2224" cx="852.8" cy="211" r="5"/>
				<circle opacity="0.3" fill="#ED2224" cx="899.4" cy="307.6" r="5"/>
				<circle opacity="0.3" fill="#ED2224" cx="877.4" cy="323.6" r="5"/>
				<circle opacity="0.3" fill="#ED2224" cx="881.4" cy="332.1" r="5"/>
				<rect x="855" y="182.7" opacity="1.000000e-02" fill="#FFFFFF" width="118.2" height="200.7"
					  onclick="animateClickedCity('fort_wayne')"/>
			</g>
		</g>
		<g id="muncie">
			<g class="heading">
				<g>
					<text x="1065" y="395">Muncie</text>
				</g>
			</g>
			<g class="coverage">
				<g>
					<line opacity="0.7" fill="none" stroke="#245A8F" stroke-width="3" stroke-miterlimit="10"
						  x1="981.3" y1="412" x2="1050" y2="412"/>
					<text class="tv" x="1065" y="420">WIPB - TV</text>
					<circle opacity="0.7" fill="#245A8F" cx="845.1" cy="497.9" r="161.4"/>
				</g>
				<g>
					<line opacity="0.3" fill="none" stroke="#ED2224" stroke-width="3" stroke-miterlimit="10"
						  x1="835.3" y1="434" x2="1050" y2="434"/>
					<text class="fm" x="1065" y="442">WBSW-FM</text>
					<circle opacity="0.3" fill="#ED2224" cx="821.6" cy="399.8" r="35.6"/>
				</g>
				<g>
					<line opacity="0.3" fill="none" stroke="#ED2224" stroke-width="3" stroke-miterlimit="10"
						  x1="957.3" y1="456" x2="1050" y2="456"/>
					<text class="fm" x="1065" y="464">WBSJ-FM</text>
					<circle opacity="0.3" fill="#ED2224" cx="921.2" cy="436.4" r="40.1"/>
				</g>
				<g>
					<line opacity="0.3" fill="none" stroke="#ED2224" stroke-width="3" stroke-miterlimit="10"
						  x1="895.3" y1="478" x2="1050" y2="478"/>
					<text class="fm" x="1065" y="486">WBST-FM</text>
					<circle opacity="0.3" fill="#ED2224" cx="854.2" cy="496.4" r="44.1"/>
				</g>
				<g>
					<line opacity="0.3" fill="none" stroke="#ED2224" stroke-width="3" stroke-miterlimit="10"
						  x1="840.3" y1="500" x2="1050" y2="500"/>
					<text class="fm" x="1065" y="508">WBSB-FM</text>
					<circle opacity="0.3" fill="#ED2224" cx="811.2" cy="504.4" r="29.5"/>
				</g>
				<g>
					<line opacity="0.3" fill="none" stroke="#ED2224" stroke-width="3" stroke-miterlimit="10"
						  x1="919.3" y1="522" x2="1050" y2="522"/>
					<text class="fm" x="1065" y="530">WBSH-FM</text>
					<circle opacity="0.3" fill="#ED2224" cx="904.2" cy="560.4" r="39.1"/>
				</g>
			</g>
			<g class="label">
				<g>
					<text x="827.2" y="470.4">Muncie</text>
				</g>
				<circle fill="#989898" cx="867.9" cy="486.8" r="5.5"/>
				<circle opacity="0.3" fill="#ED2224" cx="811.2" cy="504.4" r="5"/>
				<circle opacity="0.3" fill="#ED2224" cx="821.6" cy="399.8" r="5"/>
				<circle opacity="0.3" fill="#ED2224" cx="854.2" cy="496.4" r="5"/>
				<circle opacity="0.3" fill="#ED2224" cx="904.2" cy="560.4" r="5"/>
				<circle opacity="0.3" fill="#ED2224" cx="921.2" cy="436.4" r="5"/>
				<rect x="800" y="389" opacity="1.000000e-02" fill="#FFFFFF" width="130" height="200"
					  onclick="animateClickedCity('muncie')"/>
			</g>
		</g>
		<g id="bloomington">
			<g class="heading">
				<g>
					<text x="1015" y="674">Bloomington</text>
				</g>
			</g>
			<g class="coverage">
				<g>
					<line opacity="0.7" fill="none" stroke="#245A8F" stroke-width="3" stroke-miterlimit="10"
						  x1="789.3" y1="690" x2="1005.3" y2="690"/>
					<text class="tv" x="1015" y="698">WTIU - TV</text>
					<circle opacity="0.7" fill="#245A8F" cx="681.1" cy="688.6" r="108"/>
				</g>
				<g>
					<line opacity="0.3" fill="none" stroke="#ED2224" stroke-width="3" stroke-miterlimit="10"
						  x1="806.3" y1="712" x2="1005.3" y2="712"/>
					<text class="fm" x="1015" y="720">WFIU - FM</text>
					<circle opacity="0.3" fill="#ED2224" cx="694.4" cy="706.6" r="112"/>
				</g>
			</g>
			<g class="label">
				<g>
					<text x="609.5" y="685.4">Bloomington</text>
				</g>
				<circle fill="#989898" cx="679.3" cy="697.6" r="5.5"/>
				<circle opacity="0.7" fill="#245A8F" cx="681.1" cy="688.6" r="5"/>
				<circle opacity="0.3" fill="#ED2224" cx="694.4" cy="706.6" r="5"/>
				<rect x="616.5" y="667.6" opacity="1.000000e-02" fill="#FFFFFF" width="137.7" height="60.7"
					  onclick="animateClickedCity('bloomington')"/>
			</g>
		</g>
		<g id="evansville">
			<g class="heading">
				<g>
					<text x="259" y="895">Evansville</text>
				</g>
			</g>
			<g class="coverage">
				<g>
					<line opacity="0.7" fill="none" stroke="#245A8F" stroke-width="3" stroke-miterlimit="10"
						  x1="395.3" y1="914.5" x2="369.3" y2="914.5"/>
					<text class="tv" x="259" y="922">WNIN - TV</text>
					<circle opacity="0.7" fill="#245A8F" cx="567" cy="928.7" r="173.3"/>
				</g>
				<g>
					<line opacity="0.7" fill="none" stroke="#ED2224" stroke-width="3" stroke-miterlimit="10"
						  x1="483.3" y1="935.5" x2="371.3" y2="935.5"/>
					<text class="fm" x="259" y="944">WNIN - FM</text>
					<circle opacity="0.3" fill="#ED2224" cx="570.4" cy="933.6" r="87.3"/>
				</g>
			</g>
			<g class="label">
				<g>
					<text x="453.4" y="918.5">Evansville</text>
				</g>
				<circle fill="#989898" cx="508.2" cy="934" r="5.4"/>
				<circle opacity="0.3" fill="#ED2224" cx="570.4" cy="933.6" r="5"/>
				<circle opacity="0.7" fill="#245A8F" cx="567" cy="928.7" r="5"/>
				<rect x="460.6" y="904.2" opacity="1.000000e-02" fill="#FFFFFF" width="139.9" height="60.7"
					  onclick="animateClickedCity('evansville')"/>
			</g>
		</g>
		<g id="vincennes">
			<g class="heading">
				<g>
					<text x="234" y="770">Vincennes</text>
				</g>
			</g>
			<g class="coverage">
				<g>
					<line opacity="0.7" fill="none" stroke="#245A8F" stroke-width="3" stroke-miterlimit="10"
						  x1="425.3" y1="785.5" x2="350" y2="785.5"/>
					<text class="tv" x="234" y="794">WVUT - TV</text>
					<circle opacity="0.7" fill="#245A8F" cx="537.2" cy="796.5" r="112"/>
				</g>
				<g>
					<line opacity="0.7" fill="none" stroke="#ED2224" stroke-width="3" stroke-miterlimit="10"
						  x1="438.3" y1="807.5" x2="355" y2="807.5"/>
					<text class="fm" x="234" y="816">WVUB - FM</text>
					<circle opacity="0.3" fill="#ED2224" cx="535.4" cy="803.6" r="97"/>
				</g>
			</g>
			<g class="label">
				<g>
					<text x="460" y="777">Vincennes</text>
				</g>
				<circle fill="#989898" cx="515.8" cy="793" r="5.5"/>
				<circle opacity="0.7" fill="#245A8F" cx="537.2" cy="796.5" r="5"/>
				<circle opacity="0.3" fill="#ED2224" cx="535.4" cy="803.6" r="5"/>
				<rect x="468.3" y="763.6" opacity="1.000000e-02" fill="#FFFFFF" width="105.9" height="60.7"
					  onclick="animateClickedCity('vincennes')"/>
			</g>
		</g>
		<g id="indianapolis">
			<g class="heading">
				<g>
					<text x="368" y="535">Indianapolis</text>
				</g>
			</g>
			<g class="coverage">
				<g>
					<line opacity="0.7" fill="none" stroke="#245A8F" stroke-width="3" stroke-miterlimit="10"
						  x1="589.3" y1="552.5" x2="473.3" y2="552.5"/>
					<text class="tv" x="368" y="559">WFYI - TV</text>
					<circle opacity="0.7" fill="#245A8F" cx="739.7" cy="537.6" r="153"/>
				</g>
				<g>
					<line opacity="0.3" fill="none" stroke="#ED2224" stroke-width="3" stroke-miterlimit="10"
						  x1="669.3" y1="573.5" x2="476.3" y2="573.5"/>
					<text class="fm" x="368" y="581">WFYI - FM</text>
					<circle opacity="0.3" fill="#ED2224" cx="741.4" cy="552.6" r="74"/>
				</g>
			</g>
			<g class="label">
				<g>
					<text x="678" y="551">Indianapolis</text>
				</g>
				<circle fill="#989898" cx="741.8" cy="567" r="5.5"/>
					<circle opacity="0.7" fill="#245A8F" cx="739.7" cy="537.6" r="5"/>
					<circle opacity="0.3" fill="#ED2224" cx="741.4" cy="552.6" r="5"/>
				<rect x="685.7" y="537.2" opacity="1.000000e-02" fill="#FFFFFF" width="131.4" height="40.7"
					  onclick="animateClickedCity('indianapolis')"/>
			</g>
		</g>
		<g id="west_lafayette">
			<g class="heading">
				<g>
					<text x="303" y="447">West Lafayette</text>
				</g>
			</g>
			<g class="coverage">
				<g>
					<line opacity="0.7" fill="none" stroke="#FDC713" stroke-width="3" stroke-miterlimit="10"
						  x1="509.3" y1="464.5" x2="432.3" y2="464.5"/>
					<text class="am" x="303" y="471">WBAA - AM</text>
					<circle opacity="0.7" fill="#FDC713" cx="626.3" cy="480.1" r="120.1"/>
				</g>
				<g>

					<line opacity="0.3" fill="none" stroke="#ED2224" stroke-width="3" stroke-miterlimit="10"
						  x1="554.3" y1="486.5" x2="432.3" y2="486.5"/>
					<text class="fm" x="303" y="494">WBAA - FM</text>
					<circle opacity="0.3" fill="#ED2224" cx="627.9" cy="464.1" r="78.5"/>
				</g>
			</g>
			<g class="label">
				<g>
					<text x="524" y="425">West Lafayette</text>
				</g>
				<circle fill="#989898" cx="618.1" cy="440.1" r="5.5"/>
					<circle opacity="0.7" fill="#FDC713" cx="626.3" cy="480.1" r="5"/>
					<circle opacity="0.3" fill="#ED2224" cx="627.9" cy="464.1" r="5"/>
				<rect x="532.9" y="400.5" opacity="1.000000e-02" fill="#FFFFFF" width="152.8" height="86.4"
					  onclick="animateClickedCity('west_lafayette')"/>
			</g>
		</g>
		<g id="merrillville">
			<g class="heading">
				<g>
					<text x="213" y="226">Merrillville</text>
				</g>
			</g>
			<g class="coverage">
				<g>

					<line opacity="0.7" fill="none" stroke="#245A8F" stroke-width="3" stroke-miterlimit="10"
						  x1="405.3" y1="242.5" x2="333.3" y2="242.5"/>
					<text class="tv" x="213" y="250">WYIN - TV</text>
					<circle opacity="0.7" fill="#245A8F" cx="532.9" cy="252.4" r="128.8"/>
				</g>
				<g>
					<line opacity="0.3" fill="none" stroke="#ED2224" stroke-width="3" stroke-miterlimit="10"
						  x1="507.3" y1="266.5" x2="343.3" y2="266.5"/>
					<text class="fm" x="213" y="274">WLPR - FM</text>
					<circle opacity="0.3" fill="#ED2224" cx="553.9" cy="247.9" r="51.9"/>
				</g>
			</g>
			<g class="label">
				<g>
					<text x="475" y="216">Merrillville</text>
				</g>
				<circle fill="#989898" cx="546.6" cy="232.2" r="5.5"/>
					<circle opacity="0.7" fill="#245A8F" cx="532.9" cy="252.4" r="5"/>
					<circle opacity="0.3" fill="#ED2224" cx="553.9" cy="247.9" r="5"/>
				<rect x="492.7" y="202.5" opacity="1.000000e-02" fill="#FFFFFF" width="128.4" height="66.3"
					  onclick="animateClickedCity('merrillville')"/>
			</g>
		</g>
	</g>
</svg>


