<svg xmlns="http://www.w3.org/2000/svg" width="1267.053" height="1269.066" viewBox="0 0 1267.053 1269.066"><g id="Group_5174" data-name="Group 5174" opacity=".06" transform="translate(-68 -25.998)"><path id="Path_2714" fill="#fff" d="M1790.254,985.289c-104.127,72.644-213.094,135.609-324.491,198.568-147.713,82.338-295.431,162.245-455.255,215.517-79.909,26.642-159.824,50.855-244.577,48.432C661.8,1445.39,598.846,1384.848,594,1280.721c-4.84-94.44,21.8-184.041,50.855-271.212C744.136,731.026,896.7,476.762,1054.1,227.339c4.839-7.263,9.686-14.526,12.1-14.526,0,2.417-4.838,12.1-7.263,24.212A2804.254,2804.254,0,0,0,933.025,634.161a764.574,764.574,0,0,0-16.958,234.891c21.8,167.092,116.238,254.271,288.169,259.11,154.983,2.423,302.694-41.169,445.569-94.441,46.008-16.949,89.594-36.323,133.186-53.272a242.743,242.743,0,0,0,26.636-9.686Z" data-name="Path 2714" transform="translate(-525.428 -152.91)"/><path id="Path_2715" fill="#fff" d="M871.539,212.465a2125.192,2125.192,0,0,0-29.061,249.424c-4.84,171.925,55.7,317.221,220.365,365.653a575.348,575.348,0,0,0,222.788,14.533c58.117-7.271,116.232-21.8,174.349-31.483a272.041,272.041,0,0,1-89.6,58.119c-142.87,77.491-290.591,150.136-452.83,179.2-193.728,33.9-288.169-60.543-259.111-256.687,26.635-174.356,92.018-334.178,169.509-491.577A731.882,731.882,0,0,1,871.539,212.465Z" data-name="Path 2715" transform="translate(-168.518 -154.978)"/><path id="Path_2716" fill="#fff" d="M1248.931,668.046A1232.054,1232.054,0,0,1,955.92,767.327a342.2,342.2,0,0,1-99.287,4.846c-94.44-7.263-154.982-75.068-159.82-174.355C689.547,469.478,730.71,353.241,774.3,237l9.684-29.06a264.733,264.733,0,0,0-2.422,41.169c-7.262,96.864-7.262,191.3,53.273,273.636,77.491,106.551,188.883,135.61,312.381,142.874C1176.28,668.046,1205.338,668.046,1248.931,668.046Z" data-name="Path 2716" transform="translate(86.121 -181.945)"/><path id="Path_2717" fill="#fff" d="M782.712,210.031c7.27,193.722,128.348,271.213,302.694,293.009-84.754,33.9-167.085,67.805-259.1,53.272-67.8-9.687-101.71-55.7-104.128-123.5A529.08,529.08,0,0,1,782.712,210.031Z" data-name="Path 2717" transform="translate(242.378 -169.485)"/></g></svg>